SplineFontDB: 3.0
FontName: Neuton
FullName: Neuton Regular
FamilyName: Neuton
Weight: Regular
Copyright: Copyright 2010 Brian M Zick (http://21326.info)\n\n   Licensed under the Apache License, Version 2.0 (the "License");\n   you may not use this file except in compliance with the License.\n   You may obtain a copy of the License at\n\n       http://www.apache.org/licenses/LICENSE-2.0\n\n   Unless required by applicable law or agreed to in writing, software\n   distributed under the License is distributed on an "AS IS" BASIS,\n   WITHOUT WARRANTIES OR CONDITIONS OF ANY KIND, either express or implied.\n   See the License for the specific language governing permissions and\n   limitations under the License.
UComments: "Neuton is a dark, dutch-inspired, compact text serif, intended for use on screen. Neuton is Brian Zick's debut font, and includes text figures, an extended character set, and smooth, readable forms. Neuton works well in any size, as well as in print." 
Version: 1.2
ItalicAngle: 0
UnderlinePosition: -441
UnderlineWidth: 220
Ascent: 1586
Descent: 462
LayerCount: 3
Layer: 0 0 "Back"  1
Layer: 1 0 "Fore"  0
Layer: 2 0 "Mask"  1
NeedsXUIDChange: 1
FSType: 8
OS2Version: 0
OS2_WeightWidthSlopeOnly: 0
OS2_UseTypoMetrics: 0
CreationTime: 1288265700
ModificationTime: 1291103212
PfmFamily: 17
TTFWeight: 500
TTFWidth: 5
LineGap: 0
VLineGap: 0
OS2TypoAscent: 6345
OS2TypoAOffset: 1
OS2TypoDescent: 1879
OS2TypoDOffset: 1
OS2TypoLinegap: 369
OS2WinAscent: 0
OS2WinAOffset: 1
OS2WinDescent: 0
OS2WinDOffset: 1
HheadAscent: 0
HheadAOffset: 1
HheadDescent: 0
HheadDOffset: 1
OS2Vendor: 'PfEd'
Lookup: 260 0 0 "'abvm' Above Base Mark lookup 0"  {} ['abvm' ('DFLT' <'dflt' > 'grek' <'dflt' > 'hebr' <'dflt' > 'latn' <'dflt' > ) ]
DEI: 91125
LangName: 1033 "" "" "" "" "" "Version 1.2" "" "" "" "Brian M Zick" 
Encoding: UnicodeBmp
UnicodeInterp: none
NameList: Adobe Glyph List
DisplaySize: -24
AntiAlias: 1
FitToEm: 1
WinInfo: 0 27 10
BeginPrivate: 9
BlueFuzz 1 4

StartChar: A
Encoding: 65 65 0
Width: 1554
VWidth: 0
Flags: HW
LayerCount: 3
Fore
SplineSet
912 1542 m 1
 1385 151 l 1
 1552 98 l 1
 1542 0 l 1
 916 0 l 1
 930 90 l 1
 1138 157 l 1
 1006 526 l 1
 496 526 l 1
 359 151 l 1
 586 98 l 1
 572 0 l 1
 2 0 l 1
 14 90 l 1
 195 157 l 1
 727 1504 l 1
 912 1542 l 1
542 649 m 1
 970 649 l 1
 767 1257 l 1
 542 649 l 1
1399 20 m 0
825 1512 m 0
EndSplineSet
EndChar

StartChar: AE
Encoding: 198 198 1
Width: 2058
VWidth: 0
Flags: HW
LayerCount: 3
Fore
SplineSet
1054 1287 m 1
 679 691 l 1
 1052 691 l 1
 1054 1287 l 1
1052 574 m 1
 614 574 l 1
 351 153 l 1
 578 100 l 1
 564 2 l 1
 10 2 l 1
 22 92 l 1
 187 159 l 1
 1054 1512 l 1
 1998 1512 l 1
 1960 1128 l 1
 1855 1144 l 1
 1805 1401 l 1
 1273 1401 l 1
 1273 827 l 1
 1586 827 l 1
 1638 976 l 1
 1753 984 l 1
 1713 516 l 1
 1608 498 l 1
 1568 713 l 1
 1273 713 l 1
 1273 116 l 1
 1837 116 l 1
 1958 400 l 1
 2056 381 l 1
 2020 0 l 1
 1440 0 l 1
 904 0 l 1
 839 0 l 1
 849 90 l 1
 1048 147 l 1
 1052 147 l 1
 1052 574 l 1
1030 1512 m 0
EndSplineSet
EndChar

StartChar: Alpha-latin
Encoding: 11373 11373 18
Width: 1554
VWidth: 0
Flags: HW
LayerCount: 3
Fore
SplineSet
760 1257 m 1
 359 151 l 1
 586 98 l 1
 572 0 l 1
 2 0 l 1
 14 90 l 1
 195 157 l 1
 720 1504 l 1
 905 1542 l 1
 1385 151 l 1
 1552 98 l 1
 1542 0 l 1
 916 0 l 1
 930 90 l 1
 1138 157 l 1
 760 1257 l 1
1399 20 m 0
EndSplineSet
EndChar

StartChar: B
Encoding: 66 66 23
Width: 1371
VWidth: 0
Flags: HW
LayerCount: 3
Fore
SplineSet
749 735 m 2
 478 735 l 1
 478 116 l 1
 745 116 l 2
 956 116 1066 265 1066 422 c 0
 1066 573 962 735 749 735 c 2
928 827 m 1
 928 817 l 1
 1177 803 1305 623 1305 462 c 0
 1305 233 1147 0 657 0 c 2
 28 0 l 1
 40 90 l 1
 245 147 l 1
 245 1343 l 1
 36 1379 l 1
 48 1472 l 1
 225 1498 432 1528 647 1528 c 512
 1024 1528 1179 1358 1179 1175 c 0
 1179 1049 1119 897 928 827 c 1
478 1416 m 1
 478 837 l 1
 791 837 l 1
 895 881 950 967 950 1106 c 0
 950 1257 869 1424 574 1424 c 0
 544 1424 510 1422 478 1416 c 1
EndSplineSet
EndChar

StartChar: C
Encoding: 67 67 25
Width: 1351
VWidth: 0
Flags: HW
LayerCount: 3
Fore
SplineSet
321 801 m 0
 321 365 584 135 873 135 c 0
 1036 135 1193 221 1297 317 c 1
 1341 225 l 1
 1245 109 1032 -30 779 -30 c 0
 406 -30 60 231 60 717 c 0
 60 1076 287 1544 843 1544 c 0
 1004 1544 1167 1510 1283 1422 c 1
 1245 1018 l 1
 1138 1034 l 1
 1088 1301 l 1
 1032 1373 930 1428 773 1428 c 0
 520 1428 321 1193 321 801 c 0
857 0 m 0
817 1512 m 0
EndSplineSet
EndChar

StartChar: D
Encoding: 68 68 29
Width: 1610
VWidth: 0
Flags: HW
LayerCount: 3
Fore
SplineSet
480 1399 m 1
 480 126 l 1
 657 126 l 2
 1089 126 1293 402 1293 727 c 0
 1293 1100 1076 1405 628 1405 c 0
 578 1405 530 1405 480 1399 c 1
1550 795 m 0
 1550 379 1244 0 622 0 c 2
 22 0 l 1
 38 90 l 1
 247 157 l 1
 247 1341 l 1
 38 1377 l 1
 48 1470 l 1
 287 1508 496 1530 673 1530 c 0
 1356 1530 1550 1170 1550 795 c 0
805 757 m 0
765 1512 m 0
EndSplineSet
EndChar

StartChar: E
Encoding: 69 69 34
Width: 1307
VWidth: 0
Flags: HW
LayerCount: 3
Fore
SplineSet
42 1512 m 1
 1253 1512 l 1
 1215 1124 l 1
 1110 1140 l 1
 1060 1401 l 1
 486 1401 l 1
 486 823 l 1
 839 823 l 1
 891 968 l 1
 1006 984 l 1
 966 512 l 1
 861 496 l 1
 821 709 l 1
 486 709 l 1
 486 116 l 1
 1090 116 l 1
 1209 396 l 1
 1309 381 l 1
 1273 0 l 1
 38 0 l 1
 48 90 l 1
 251 147 l 1
 251 1369 l 1
 30 1420 l 1
 42 1512 l 1
695 1512 m 0
1157 20 m 0
735 0 m 0
EndSplineSet
EndChar

StartChar: Eth
Encoding: 208 208 50
Width: 1606
VWidth: 0
Flags: HW
LayerCount: 3
Fore
SplineSet
1566 801 m 0
 1566 405 1245 0 645 0 c 2
 22 0 l 1
 38 90 l 1
 247 157 l 1
 247 693 l 1
 28 675 l 1
 42 787 l 1
 247 803 l 1
 247 1343 l 1
 38 1379 l 1
 48 1472 l 1
 287 1510 496 1532 673 1532 c 0
 1356 1532 1566 1176 1566 801 c 0
480 707 m 1
 480 126 l 1
 737 126 l 2
 1137 126 1305 416 1305 727 c 0
 1305 1100 1082 1407 628 1407 c 0
 578 1407 530 1405 480 1399 c 1
 480 817 l 1
 793 843 l 1
 779 731 l 1
 480 707 l 1
EndSplineSet
EndChar

StartChar: Euro
Encoding: 8364 8364 52
Width: 1351
VWidth: 0
Flags: HW
LayerCount: 3
Fore
SplineSet
1028 211 m 1
 1078 478 l 1
 1185 494 l 1
 1223 135 l 1
 1070 15 942 -30 743 -30 c 0
 404 -30 116 186 68 590 c 1
 -56 590 l 1
 -34 719 l 1
 60 719 l 1
 60 747 62 775 64 803 c 1
 -48 803 l 1
 -26 932 l 1
 82 932 l 1
 144 1239 353 1544 803 1544 c 0
 964 1544 1087 1510 1203 1422 c 1
 1165 1018 l 1
 1058 1034 l 1
 1008 1301 l 1
 952 1373 890 1428 733 1428 c 0
 510 1428 359 1245 327 932 c 1
 990 932 l 1
 954 803 l 1
 321 803 l 1
 321 801 l 2
 321 773 321 745 323 719 c 1
 934 719 l 1
 898 590 l 1
 337 590 l 1
 387 269 562 102 803 102 c 0
 879 102 970 131 1028 211 c 1
EndSplineSet
EndChar

StartChar: F
Encoding: 70 70 53
Width: 1250
VWidth: 0
Flags: HW
LayerCount: 3
Fore
SplineSet
42 1512 m 5
 1251 1512 l 5
 1201 1122 l 5
 1094 1138 l 5
 1052 1401 l 5
 486 1401 l 5
 486 815 l 5
 835 815 l 5
 887 962 l 5
 996 978 l 5
 964 502 l 5
 857 484 l 5
 819 703 l 5
 486 703 l 5
 484 149 l 5
 773 102 l 5
 757 0 l 5
 38 0 l 5
 48 90 l 5
 251 147 l 5
 251 1369 l 5
 30 1420 l 5
 42 1512 l 5
EndSplineSet
EndChar

StartChar: G
Encoding: 71 71 54
Width: 1552
VWidth: 0
Flags: HW
LayerCount: 3
Fore
SplineSet
1373 1414 m 1
 1343 1022 l 1
 1237 1040 l 1
 1193 1273 l 1
 1137 1329 990 1412 799 1412 c 0
 560 1412 323 1233 323 787 c 0
 323 426 538 94 924 94 c 0
 1022 94 1100 125 1134 145 c 1
 1134 528 l 1
 847 574 l 1
 861 675 l 1
 1538 675 l 1
 1524 584 l 1
 1373 534 l 1
 1373 96 l 1
 1212 0 1030 -38 787 -38 c 0
 297 -38 60 289 60 703 c 0
 60 1225 455 1532 859 1532 c 0
 1074 1532 1253 1486 1373 1414 c 1
898 0 m 0
898 1512 m 0
EndSplineSet
EndChar

StartChar: H
Encoding: 72 72 58
Width: 1722
VWidth: 0
Flags: HW
LayerCount: 3
Fore
SplineSet
697 0 m 1
 38 0 l 1
 48 90 l 1
 251 147 l 1
 251 1369 l 1
 30 1420 l 1
 42 1512 l 1
 705 1512 l 1
 693 1420 l 1
 488 1373 l 1
 488 841 l 1
 1251 841 l 1
 1251 1369 l 1
 1028 1420 l 1
 1042 1512 l 1
 1705 1512 l 1
 1691 1420 l 1
 1488 1373 l 1
 1488 139 l 1
 1709 98 l 1
 1697 0 l 1
 1036 0 l 1
 1050 90 l 1
 1251 147 l 1
 1251 719 l 1
 488 717 l 1
 488 139 l 1
 713 98 l 1
 697 0 l 1
861 757 m 0
869 1512 m 0
EndSplineSet
EndChar

StartChar: I
Encoding: 73 73 60
Width: 730
VWidth: 0
Flags: HW
LayerCount: 3
Fore
SplineSet
695 0 m 1
 38 0 l 1
 48 90 l 1
 251 147 l 1
 251 1369 l 1
 30 1420 l 1
 42 1512 l 1
 705 1512 l 1
 693 1420 l 1
 486 1373 l 1
 486 139 l 1
 707 98 l 1
 695 0 l 1
367 1512 m 0
EndSplineSet
EndChar

StartChar: J
Encoding: 74 74 72
Width: 720
VWidth: 0
Flags: HW
LayerCount: 3
Fore
SplineSet
28 -396 m 1
 -38 -289 l 1
 151 -110 249 44 249 239 c 2
 251 1369 l 1
 30 1420 l 1
 42 1512 l 1
 705 1512 l 1
 693 1420 l 1
 486 1373 l 1
 484 468 l 2
 482 -30 377 -167 28 -396 c 1
373 1512 m 0
EndSplineSet
EndChar

StartChar: K
Encoding: 75 75 73
Width: 1477
VWidth: 0
Flags: HW
LayerCount: 3
Fore
SplineSet
518 735 m 1
 516 761 l 1
 550 795 663 920 701 970 c 2
 1000 1363 l 1
 811 1420 l 1
 821 1512 l 1
 1420 1512 l 1
 1405 1420 l 1
 1191 1363 l 1
 737 795 l 1
 1014 468 l 2
 1197 249 1285 148 1440 100 c 2
 1486 86 l 1
 1472 2 l 1
 1416 -18 1363 -26 1313 -26 c 0
 1110 -26 962 126 823 317 c 2
 518 735 l 1
486 151 m 1
 717 98 l 1
 703 0 l 1
 30 0 l 1
 42 90 l 1
 251 157 l 1
 251 1359 l 1
 22 1420 l 1
 38 1512 l 1
 707 1512 l 1
 695 1420 l 1
 486 1363 l 1
 486 151 l 1
739 0 m 0
757 1512 m 0
EndSplineSet
EndChar

StartChar: L
Encoding: 76 76 75
Width: 1295
VWidth: 0
Flags: HW
LayerCount: 3
Fore
SplineSet
715 1512 m 1
 703 1420 l 1
 494 1363 l 1
 494 116 l 1
 1032 116 l 1
 1191 418 l 1
 1295 402 l 1
 1249 0 l 1
 46 0 l 1
 56 90 l 1
 259 147 l 1
 259 1359 l 1
 30 1420 l 1
 46 1512 l 1
 715 1512 l 1
649 0 m 0
388 1512 m 0
EndSplineSet
EndChar

StartChar: Lslash
Encoding: 321 321 81
Width: 1295
VWidth: 0
Flags: HW
LayerCount: 3
Fore
SplineSet
71 756 m 25
 668 1104 l 25
 668 968 l 25
 72 616 l 25
 71 756 l 25
EndSplineSet
Refer: 75 76 N 1 0 0 1 0 0 2
EndChar

StartChar: M
Encoding: 77 77 82
Width: 2023
VWidth: 0
Flags: HW
LayerCount: 3
Fore
SplineSet
885 38 m 1
 468 1175 l 1
 390 139 l 1
 614 98 l 1
 598 0 l 1
 14 0 l 1
 28 90 l 1
 231 147 l 1
 319 1369 l 1
 96 1420 l 1
 110 1512 l 1
 596 1512 l 1
 693 1277 l 1
 1010 375 l 1
 1387 1317 l 1
 1472 1512 l 1
 1952 1512 l 1
 1940 1420 l 1
 1735 1373 l 1
 1799 139 l 1
 2020 98 l 1
 2008 0 l 1
 1357 0 l 1
 1371 90 l 1
 1572 147 l 1
 1504 1221 l 1
 1040 62 l 1
 885 38 l 1
1020 1466 m 0
EndSplineSet
EndChar

StartChar: N
Encoding: 78 78 84
Width: 1626
VWidth: 0
Flags: HW
LayerCount: 3
Fore
SplineSet
1213 -36 m 1
 406 1169 l 1
 406 139 l 1
 628 98 l 1
 616 0 l 1
 38 0 l 1
 48 90 l 1
 251 147 l 1
 251 1359 l 1
 30 1420 l 1
 42 1512 l 1
 470 1512 l 1
 1251 331 l 1
 1251 1369 l 1
 1026 1420 l 1
 1040 1512 l 1
 1618 1512 l 1
 1602 1420 l 1
 1399 1373 l 1
 1399 2 l 1
 1213 -36 l 1
813 0 m 0
793 1512 m 0
EndSplineSet
EndChar

StartChar: O
Encoding: 79 79 92
Width: 1608
VWidth: 0
Flags: HW
LayerCount: 3
Fore
SplineSet
787 1430 m 4
 422 1430 331 1140 331 823 c 4
 331 466 470 96 821 96 c 4
 1190 96 1277 402 1277 697 c 4
 1277 1042 1136 1430 787 1430 c 4
1548 753 m 4
 1548 333 1267 -32 761 -32 c 4
 341 -32 60 313 60 753 c 4
 60 1221 361 1548 845 1548 c 4
 1285 1548 1548 1179 1548 753 c 4
813 1512 m 4
EndSplineSet
EndChar

StartChar: OE
Encoding: 338 338 93
Width: 2009
VWidth: 0
Flags: HW
LayerCount: 3
Back
SplineSet
1009.95 1511.91 m 4
 1955.64 1511.91 l 5
 1917.49 1124.39 l 5
 1813.08 1140.46 l 5
 1762.89 1401.47 l 5
 1192.66 1401.47 l 5
 1192.66 823.216 l 5
 1542.02 823.216 l 5
 1594.23 967.78 l 5
 1708.67 983.843 l 5
 1668.52 512 l 5
 1564.11 495.938 l 5
 1523.95 708.769 l 5
 1192.66 708.769 l 5
 1192.66 116.455 l 5
 1793 116.455 l 5
 1911.47 395.545 l 5
 2011.86 381.49 l 5
 1975.72 0 l 5
 953.726 0 l 4
 872.074 -21.418 787.745 -32.126 700.737 -32.126 c 4
 494.6 -32.126 336.313 42.833 225.883 192.753 c 132
 115.451 342.671 60.2354 529.4 60.2354 752.941 c 4
 60.2354 989.867 121.142 1181.62 242.949 1328.19 c 132
 364.757 1474.76 545.463 1548.05 785.066 1548.05 c 4
 869.396 1548.05 944.357 1536 1009.95 1511.91 c 4
957.741 148.58 m 4
 957.741 1369.35 l 5
 889.475 1409.51 812.506 1429.58 726.839 1429.58 c 4
 463.142 1429.58 331.294 1227.46 331.294 823.216 c 4
 331.294 729.518 340.663 640.835 359.404 557.177 c 132
 378.146 473.518 400.898 396.549 427.671 326.274 c 132
 454.443 256 496.941 200.113 555.169 158.619 c 132
 613.396 117.126 679.321 96.377 752.941 96.377 c 132
 826.561 96.377 894.827 113.776 957.741 148.58 c 4
EndSplineSet
Fore
SplineSet
60 753 m 3
 60 990 123 1182 243 1329 c 128
 363 1476 544 1548 785 1548 c 0
 869 1548 946 1536 1010 1512 c 9
 1956 1512 l 1
 1917 1124 l 1
 1813 1140 l 1
 1763 1401 l 1
 1193 1401 l 1
 1193 823 l 1
 1542 823 l 1
 1594 968 l 1
 1709 984 l 1
 1669 512 l 1
 1564 496 l 1
 1524 709 l 1
 1193 709 l 1
 1193 116 l 1
 1793 116 l 1
 1911 396 l 1
 2012 381 l 1
 1976 0 l 1
 954 0 l 17
 874 -20 789 -32 701 -32 c 0
 289 -32 60 301 60 753 c 3
753 96 m 3
 825 96 894 113 958 149 c 9
 958 1369 l 1
 890 1409 811 1430 727 1430 c 0
 462 1430 331 1229 331 823 c 0
 331 506 438 96 753 96 c 3
EndSplineSet
EndChar

StartChar: Oslash
Encoding: 216 216 110
Width: 1622
VWidth: 0
Flags: HW
LayerCount: 3
Back
SplineSet
95 -72 m 21
 310.415 248 l 5
 381.42 300 l 5
 1121.06 1424 l 5
 1126.3 1460 l 5
 1199 1568 l 13
 1396 1580 l 21
 1258.84 1376 l 5
 1180.49 1316 l 5
 430.611 168 l 5
 422.406 132 l 5
 296 -56 l 13
 95 -72 l 21
802 1430 m 4
 437 1430 331 1140 331 823 c 4
 331 466 485 96 836 96 c 4
 1205 96 1307 402 1307 697 c 4
 1307 1042 1151 1430 802 1430 c 4
1578 753 m 4
 1578 333 1282 -32 776 -32 c 4
 356 -32 60 313 60 753 c 4
 60 1221 376 1548 860 1548 c 4
 1300 1548 1578 1179 1578 753 c 4
EndSplineSet
Fore
SplineSet
987 1678 m 1
 1148 1688 l 1
 1086 1476 l 1
 1054 1420 l 1
 674 80 l 1
 669 32 l 1
 584 -256 l 1
 427 -266 l 1
 525 72 l 1
 554 116 l 1
 927 1440 l 1
 933 1492 l 1
 987 1678 l 1
802 1430 m 0
 437 1430 331 1140 331 823 c 0
 331 466 485 96 836 96 c 0
 1205 96 1307 402 1307 697 c 0
 1307 1042 1151 1430 802 1430 c 0
1578 753 m 0
 1578 333 1282 -32 776 -32 c 0
 356 -32 60 313 60 753 c 0
 60 1221 376 1548 860 1548 c 0
 1300 1548 1578 1179 1578 753 c 0
EndSplineSet
Layer: 2
SplineSet
534 1502 m 5
 695 1512 l 5
 129 -432 l 5
 -28 -442 l 5
 534 1502 l 5
EndSplineSet
EndChar

StartChar: P
Encoding: 80 80 114
Width: 1226
VWidth: 0
Flags: HW
LayerCount: 3
Fore
SplineSet
1237 1084 m 0
 1237 795 972 600 677 600 c 0
 633 600 594 602 556 604 c 1
 534 705 l 1
 598 707 l 2
 859 715 986 823 986 1040 c 0
 986 1247 879 1426 602 1426 c 0
 552 1426 478 1418 478 1418 c 1
 478 149 l 1
 765 102 l 1
 749 0 l 1
 28 0 l 1
 40 90 l 1
 245 147 l 1
 245 1343 l 1
 36 1379 l 1
 48 1472 l 1
 205 1496 421 1526 628 1526 c 0
 945 1526 1237 1439 1237 1084 c 0
EndSplineSet
EndChar

StartChar: Q
Encoding: 81 81 115
Width: 1622
VWidth: 0
Flags: HW
LayerCount: 3
Fore
SplineSet
809 1420 m 0
 504 1420 321 1204 321 827 c 0
 321 536 450 108 912 82 c 1
 1239 164 1329 410 1329 685 c 0
 1329 1042 1130 1420 809 1420 c 0
855 -26 m 1
 843 -30 795 -32 777 -32 c 0
 357 -32 74 299 74 739 c 0
 74 1209 395 1548 877 1548 c 0
 1311 1548 1580 1191 1580 765 c 0
 1580 408 1365 82 996 -8 c 1
 1068 -173 1173 -277 1522 -335 c 1
 1522 -365 1518 -404 1510 -426 c 1
 1434 -462 1363 -468 1295 -468 c 0
 1074 -468 877 -303 855 -26 c 1
EndSplineSet
EndChar

StartChar: R
Encoding: 82 82 116
Width: 1475
VWidth: 0
Flags: HW
LayerCount: 3
Fore
SplineSet
1213 1146 m 0
 1213 989 1094 811 865 729 c 1
 865 727 l 1
 1084 424 l 2
 1227 227 1289 140 1440 94 c 2
 1480 82 l 1
 1462 -2 l 1
 1410 -20 1361 -26 1315 -26 c 0
 1122 -26 989 118 883 307 c 2
 689 653 l 1
 478 653 l 1
 478 153 l 1
 707 100 l 1
 695 0 l 1
 28 0 l 1
 40 90 l 1
 245 147 l 1
 245 1339 l 1
 36 1375 l 1
 48 1468 l 1
 227 1496 423 1524 604 1524 c 0
 965 1524 1213 1429 1213 1146 c 0
719 763 m 1
 839 803 962 905 962 1078 c 0
 962 1277 839 1422 624 1422 c 0
 538 1422 478 1416 478 1416 c 1
 478 763 l 1
 719 763 l 1
739 0 m 0
679 1512 m 0
EndSplineSet
EndChar

StartChar: S
Encoding: 83 83 120
Width: 1050
VWidth: 0
Flags: HW
LayerCount: 3
Fore
SplineSet
873 1078 m 5
 753 1092 l 5
 721 1325 l 5
 699 1369 614 1440 516 1440 c 4
 394 1440 293 1370 293 1211 c 4
 293 862 1004 888 1004 430 c 4
 1004 151 741 -30 464 -30 c 4
 289 -30 132 53 54 149 c 5
 70 474 l 5
 195 456 l 5
 241 227 l 5
 285 157 378 94 492 94 c 4
 621 94 781 168 781 349 c 4
 781 664 84 662 84 1114 c 4
 84 1389 317 1544 556 1544 c 4
 687 1544 804 1502 900 1422 c 5
 900 1412 873 1078 873 1078 c 5
EndSplineSet
EndChar

StartChar: T
Encoding: 84 84 126
Width: 1361
VWidth: 0
Flags: HW
LayerCount: 3
Fore
SplineSet
10 1512 m 1
 1361 1512 l 1
 1319 1102 l 1
 1205 1120 l 1
 1157 1401 l 1
 787 1401 l 1
 787 139 l 1
 1012 98 l 1
 996 0 l 1
 339 0 l 1
 349 90 l 1
 554 147 l 1
 554 1401 l 1
 195 1401 l 1
 131 1106 l 1
 20 1122 l 1
 10 1512 l 1
661 1512 m 0
681 757 m 0
721 0 m 0
EndSplineSet
EndChar

StartChar: Thorn
Encoding: 222 222 131
Width: 1236
VWidth: 0
Flags: HW
LayerCount: 3
Fore
SplineSet
245 145 m 1
 245 1369 l 1
 24 1420 l 1
 36 1512 l 1
 697 1512 l 1
 685 1420 l 1
 478 1373 l 1
 478 1241 l 1
 528 1243 578 1245 628 1245 c 0
 945 1245 1237 1158 1237 803 c 0
 1237 514 992 315 697 315 c 0
 653 315 606 317 556 323 c 1
 546 353 536 378 536 426 c 1
 558 424 578 426 598 426 c 0
 859 426 986 542 986 759 c 0
 986 966 871 1126 606 1126 c 0
 556 1126 478 1118 478 1118 c 1
 478 147 l 1
 765 100 l 1
 749 -2 l 1
 28 -2 l 1
 40 88 l 1
 245 145 l 1
EndSplineSet
EndChar

StartChar: U
Encoding: 85 85 132
Width: 1664
VWidth: 0
Flags: HW
LayerCount: 3
Fore
SplineSet
891 129 m 0
 1136 129 1287 269 1287 586 c 2
 1289 1369 l 1
 1068 1420 l 1
 1080 1512 l 1
 1662 1512 l 1
 1648 1420 l 1
 1446 1373 l 1
 1440 626 l 2
 1436 188 1253 -32 831 -32 c 0
 550 -32 235 58 235 570 c 2
 235 1369 l 1
 10 1420 l 1
 26 1512 l 1
 685 1512 l 1
 673 1420 l 1
 468 1373 l 1
 468 620 l 2
 468 273 642 129 891 129 c 0
994 20 m 0
873 1512 m 0
EndSplineSet
EndChar

StartChar: V
Encoding: 86 86 147
Width: 1562
VWidth: 0
Flags: HW
LayerCount: 3
Fore
SplineSet
689 -30 m 1
 179 1369 l 1
 2 1420 l 1
 14 1512 l 1
 667 1512 l 1
 655 1420 l 1
 450 1373 l 1
 829 305 l 1
 1219 1369 l 1
 996 1420 l 1
 1006 1512 l 1
 1560 1512 l 1
 1550 1420 l 1
 1391 1373 l 1
 873 6 l 1
 689 -30 l 1
EndSplineSet
EndChar

StartChar: W
Encoding: 87 87 148
Width: 2242
VWidth: 0
Flags: HW
LayerCount: 3
Fore
SplineSet
1438 -30 m 1
 1120 1157 l 1
 773 6 l 1
 576 -30 l 1
 179 1369 l 1
 10 1420 l 1
 20 1512 l 1
 645 1512 l 1
 628 1420 l 1
 424 1373 l 1
 719 331 l 1
 1060 1452 l 1
 1275 1482 l 1
 1576 349 l 1
 1893 1369 l 1
 1673 1420 l 1
 1687 1512 l 1
 2233 1512 l 1
 2219 1420 l 1
 2070 1373 l 1
 1626 6 l 1
 1438 -30 l 1
1167 1512 m 0
EndSplineSet
EndChar

StartChar: X
Encoding: 88 88 153
Width: 1461
VWidth: 0
Flags: HW
LayerCount: 3
Fore
SplineSet
867 799 m 1
 1283 139 l 1
 1448 98 l 1
 1432 0 l 1
 819 0 l 1
 835 90 l 1
 1030 147 l 1
 711 643 l 1
 357 143 l 1
 558 102 l 1
 540 0 l 1
 4 0 l 1
 20 92 l 1
 173 147 l 1
 618 747 l 1
 207 1365 l 1
 40 1418 l 1
 54 1512 l 1
 679 1512 l 1
 665 1418 l 1
 476 1363 l 1
 777 912 l 1
 1106 1369 l 1
 900 1418 l 1
 914 1512 l 1
 1444 1512 l 1
 1434 1420 l 1
 1279 1373 l 1
 867 799 l 1
EndSplineSet
EndChar

StartChar: Y
Encoding: 89 89 154
Width: 1471
VWidth: 0
Flags: HW
LayerCount: 3
Fore
SplineSet
869 643 m 1
 869 139 l 1
 1068 98 l 1
 1056 0 l 1
 440 0 l 1
 452 90 l 1
 634 147 l 1
 634 614 l 1
 205 1369 l 1
 38 1420 l 1
 54 1512 l 1
 671 1512 l 1
 657 1420 l 1
 464 1373 l 1
 801 779 l 1
 1122 1369 l 1
 900 1420 l 1
 912 1512 l 1
 1452 1512 l 1
 1440 1420 l 1
 1289 1373 l 1
 869 643 l 1
777 1512 m 0
EndSplineSet
EndChar

StartChar: Z
Encoding: 90 90 160
Width: 1226
VWidth: 0
Flags: HW
LayerCount: 3
Fore
SplineSet
62 1512 m 1
 1191 1512 l 1
 1191 1420 l 1
 261 122 l 1
 954 122 l 1
 1104 426 l 1
 1217 408 l 1
 1148 0 l 1
 10 0 l 1
 0 126 l 1
 906 1397 l 1
 253 1397 l 1
 159 1098 l 1
 50 1120 l 1
 62 1512 l 1
614 1512 m 0
EndSplineSet
EndChar

StartChar: a
Encoding: 97 97 165
Width: 1054
VWidth: 0
Flags: HW
LayerCount: 3
Fore
SplineSet
641 520 m 1
 376 468 293 377 293 261 c 0
 293 199 340 120 430 120 c 0
 514 120 601 183 641 229 c 1
 641 520 l 1
853 -22 m 0
 712 -22 665 69 665 141 c 2
 665 159 l 1
 651 159 l 1
 619 95 518 -30 319 -30 c 0
 190 -30 80 56 80 205 c 0
 80 384 244 562 641 590 c 1
 641 657 l 2
 641 822 595 978 426 978 c 0
 310 978 309 870 291 719 c 1
 227 719 122 725 122 845 c 0
 122 978 369 1096 538 1096 c 0
 755 1096 839 978 839 721 c 2
 839 279 l 2
 839 167 860 134 974 116 c 2
 1034 106 l 1
 1020 2 l 1
 962 -6 925 -22 853 -22 c 0
944 20 m 0
EndSplineSet
EndChar

StartChar: acute
Encoding: 180 180 180
Width: 752
VWidth: 0
Flags: HW
LayerCount: 3
Fore
SplineSet
564 2026 m 1
 341 1640 l 1
 279 1679 l 1
 428 2074 l 1
 564 2026 l 1
375 1506 m 0
EndSplineSet
EndChar

StartChar: ae
Encoding: 230 230 184
Width: 1533
VWidth: 0
Flags: HW
LayerCount: 3
Fore
SplineSet
641 498 m 1
 336 450 293 363 293 247 c 0
 293 149 342 102 430 102 c 0
 528 102 641 193 641 295 c 2
 641 498 l 1
839 616 m 1
 1221 661 l 1
 1227 681 1231 727 1231 747 c 0
 1231 892 1176 974 1060 974 c 0
 962 974 851 853 839 616 c 1
697 213 m 1
 643 52 492 -30 319 -30 c 0
 190 -30 80 42 80 191 c 0
 80 370 201 508 641 588 c 1
 641 657 l 2
 641 822 601 974 440 974 c 0
 324 974 315 890 297 739 c 1
 233 739 131 745 131 865 c 0
 131 998 369 1096 538 1096 c 0
 675 1096 749 1046 783 944 c 1
 879 1040 1004 1092 1120 1092 c 0
 1297 1092 1446 964 1446 707 c 0
 1446 669 1434 584 1424 542 c 1
 839 518 l 1
 849 327 950 104 1177 104 c 0
 1263 104 1328 121 1454 189 c 1
 1478 126 l 1
 1382 26 1239 -36 1078 -36 c 0
 939 -36 801 32 713 169 c 0
 707 179 701 195 697 213 c 1
767 1064 m 0
EndSplineSet
EndChar

StartChar: alef-hb
Encoding: 1488 1488 186
Width: 1180
VWidth: 0
Flags: HW
LayerCount: 3
Fore
SplineSet
347 753 m 1
 392 707 l 1
 362 669 301 602 301 514 c 0
 301 402 452 294 452 133 c 0
 452 81 440 42 424 0 c 1
 171 0 l 1
 151 78 l 1
 225 114 l 1
 253 174 169 302 169 426 c 0
 169 528 269 671 347 753 c 1
263 1191 m 1
 335 1159 l 1
 325 1064 l 1
 992 187 l 1
 952 -40 l 1
 916 -40 l 1
 143 966 l 1
 143 992 l 1
 263 1191 l 1
735 514 m 1
 914 771 l 1
 1014 926 970 980 926 1022 c 2
 835 1108 l 1
 831 1181 l 1
 769 1193 l 1
 661 994 l 1
 671 960 l 1
 823 835 l 2
 833 827 835 807 809 759 c 1
 699 578 l 1
 679 578 l 1
 735 514 l 1
40 0 m 0
590 1064 m 0
40 1064 m 0
590 0 m 0
EndSplineSet
EndChar

StartChar: ampersand
Encoding: 38 38 188
Width: 1497
VWidth: 0
Flags: HW
LayerCount: 3
Back
SplineSet
576.251 939.671 m 1
 662.588 991.875 730.854 1082.23 730.854 1200.69 c 3
 730.854 1353.34 674.636 1443.64 558.181 1443.64 c 0
 469.835 1443.64 393.537 1365.33 393.537 1244.86 c 0
 393.537 1148.49 469.835 1015.97 576.251 939.671 c 1
815.185 343.341 m 1
 433.694 764.988 l 1
 413.615 766.996 l 1
 337.317 726.839 250.98 607.373 250.98 477.867 c 3
 250.98 284.853 345.349 128.502 516.016 128.502 c 3
 626.52 128.502 746.918 216.847 815.185 343.341 c 1
901.521 265.035 m 1
 803.138 100.393 654.557 -24.0938 443.733 -24.0938 c 3
 184.722 -24.0938 22.0859 153.6 22.0859 381.49 c 19
 22.0859 568.891 134.525 726.169 359.404 853.333 c 1
 289.13 899.514 198.776 1041.07 198.776 1184.63 c 3
 198.776 1369.45 376.471 1546.04 582.274 1546.04 c 3
 835.772 1546.04 937.663 1414.53 937.663 1228.8 c 19
 937.663 1102.98 844.631 983.843 658.572 871.404 c 1
 658.572 857.349 l 1
 939.671 546.134 l 1
 1154.51 875.42 l 1
 969.788 925.615 l 1
 981.835 1017.98 l 1
 1507.89 1017.98 l 1
 1495.84 925.615 l 1
 1289.04 879.436 l 1
 1026.01 461.804 l 1
 1231.48 240.271 1370.68 118.463 1443.64 96.377 c 2
 1483.8 84.3291 l 1
 1465.73 0 l 1
 1419.54 -16.0625 1370.68 -24.0938 1319.15 -24.0938 c 0
 1184.63 -24.0938 1096.28 68.2666 901.521 265.035 c 1
EndSplineSet
Fore
SplineSet
576 940 m 5
 632 978 673 1016 697 1056 c 132
 721 1096 731 1143 731 1201 c 4
 731 1273 719 1331 691 1375 c 132
 663 1419 618 1444 558 1444 c 4
 506 1444 466 1423 438 1383 c 132
 410 1343 394 1297 394 1245 c 4
 394 1193 412 1136 450 1080 c 132
 488 1024 530 976 576 940 c 5
434 765 m 5
 414 767 l 5
 368 735 329 695 297 645 c 132
 265 595 251 538 251 478 c 4
 251 418 259 363 277 311 c 132
 295 259 325 217 365 181 c 132
 405 145 458 129 516 129 c 4
 552 129 590 139 626 155 c 132
 662 171 695 195 719 221 c 132
 743 247 763 269 779 289 c 132
 795 309 807 327 815 343 c 5
 434 765 l 5
1289 879 m 5
 1026 462 l 5
 1231 241 1372 118 1444 96 c 6
 1484 84 l 5
 1466 0 l 5
 1420 -16 1371 -24 1319 -24 c 4
 1287 -24 1255 -18 1219 -2 c 132
 1183 14 1148 36 1112 64 c 132
 1076 92 1040 125 1008 155 c 132
 976 185 942 221 902 265 c 5
 858 201 823 161 807 141 c 4
 719 41 609 -16 476 -24 c 4
 464 -24 454 -24 444 -24 c 4
 356 -24 281 -6 217 32 c 132
 153 70 102 121 70 181 c 132
 38 241 22 309 22 381 c 4
 22 570 134 724 359 853 c 5
 317 889 279 936 247 996 c 132
 215 1056 199 1119 199 1185 c 4
 199 1277 237 1360 313 1434 c 132
 389 1508 480 1546 582 1546 c 4
 634 1546 681 1542 721 1530 c 132
 761 1518 799 1502 831 1478 c 132
 863 1454 892 1421 910 1379 c 132
 928 1337 938 1287 938 1229 c 4
 938 1105 844 983 659 871 c 5
 659 857 l 5
 940 546 l 5
 1155 875 l 5
 970 926 l 5
 982 1018 l 5
 1508 1018 l 5
 1496 926 l 5
 1289 879 l 5
EndSplineSet
EndChar

StartChar: apostrophemod
Encoding: 700 700 190
Width: 463
VWidth: 0
Flags: HW
LayerCount: 3
Fore
SplineSet
120 1584 m 1
 343 1564 l 1
 299 1098 l 1
 185 1084 l 1
 120 1584 l 1
EndSplineSet
EndChar

StartChar: asciicircum
Encoding: 94 94 193
Width: 913
VWidth: 0
Flags: HW
LayerCount: 3
Fore
SplineSet
486 1520 m 1
 845 1002 l 1
 777 958 l 1
 446 1305 l 1
 434 1305 l 1
 129 964 l 1
 68 1004 l 1
 420 1504 l 1
 486 1520 l 1
EndSplineSet
EndChar

StartChar: asciitilde
Encoding: 126 126 194
Width: 1156
VWidth: 0
Flags: HW
LayerCount: 3
Fore
SplineSet
100 502 m 1
 100 502 160 761 331 743 c 2
 873 689 l 2
 919 683 978 763 978 763 c 1
 1056 761 l 1
 1056 761 988 496 815 516 c 1
 273 570 l 2
 221 576 167 486 167 486 c 1
 100 502 l 1
EndSplineSet
EndChar

StartChar: asterisk
Encoding: 42 42 195
Width: 1019
VWidth: 0
Flags: HW
LayerCount: 3
Fore
SplineSet
863 841 m 1
 719 757 l 1
 538 1058 l 1
 600 1120 l 1
 863 841 l 1
345 721 m 1
 221 833 l 1
 452 1098 l 1
 530 1058 l 1
 345 721 l 1
76 1173 m 1
 143 1327 l 1
 466 1189 l 1
 452 1102 l 1
 76 1173 l 1
422 1572 m 1
 588 1556 l 1
 556 1207 l 1
 470 1193 l 1
 422 1572 l 1
908 1365 m 1
 944 1203 l 1
 600 1124 l 1
 560 1203 l 1
 908 1365 l 1
EndSplineSet
EndChar

StartChar: at
Encoding: 64 64 196
Width: 1654
VWidth: 0
Flags: HW
LayerCount: 3
Fore
SplineSet
966 841 m 1
 942 847 897 855 859 855 c 0
 718 855 630 635 630 448 c 0
 630 265 671 219 733 219 c 0
 797 219 860 261 902 309 c 1
 966 841 l 1
916 1161 m 0
 516 1161 257 809 257 426 c 0
 257 67 489 -165 887 -165 c 0
 1060 -165 1247 -74 1303 -34 c 1
 1315 -24 l 1
 1359 -100 l 1
 1349 -106 l 1
 1253 -172 1092 -277 843 -277 c 0
 472 -277 68 -96 68 394 c 0
 68 878 436 1269 960 1269 c 0
 1301 1269 1592 1050 1592 717 c 0
 1592 388 1349 84 1016 84 c 0
 956 84 898 127 898 189 c 0
 898 203 900 227 900 227 c 1
 889 227 l 1
 841 155 753 72 661 72 c 0
 532 72 442 189 442 396 c 0
 442 743 719 960 924 960 c 0
 988 960 1054 956 1124 940 c 1
 1128 938 l 1
 1150 914 l 1
 1100 468 l 2
 1094 414 1084 309 1084 279 c 0
 1084 225 1092 205 1114 205 c 0
 1299 205 1430 420 1430 667 c 0
 1430 984 1203 1161 916 1161 c 0
EndSplineSet
EndChar

StartChar: ayin-hb
Encoding: 1506 1506 198
Width: 1180
VWidth: 0
Flags: HW
LayerCount: 3
Fore
SplineSet
317 191 m 1
 458 191 l 1
 432 289 345 601 367 719 c 1
 394 829 l 2
 438 1012 365 1028 301 1048 c 2
 219 1074 l 1
 179 1175 l 1
 108 1167 l 1
 88 922 l 1
 110 893 l 1
 221 863 l 2
 267 849 307 835 307 797 c 0
 307 761 285 695 285 641 c 0
 285 595 287 522 293 454 c 2
 317 191 l 1
586 261 m 2
 628 269 663 299 675 333 c 2
 807 747 l 2
 837 839 815 851 783 859 c 2
 614 906 l 1
 598 938 l 1
 655 1177 l 1
 727 1181 l 1
 745 1092 l 1
 859 1052 l 2
 915 1032 935 984 895 803 c 2
 767 245 l 2
 743 145 696 82 594 64 c 2
 88 -24 l 1
 56 12 l 1
 96 185 l 1
 586 261 l 2
590 532 m 0
40 0 m 0
590 1064 m 0
40 1064 m 0
590 0 m 0
EndSplineSet
EndChar

StartChar: b
Encoding: 98 98 199
Width: 1180
VWidth: 0
Flags: HW
LayerCount: 3
Fore
SplineSet
169 60 m 5
 169 1347 l 5
 -16 1412 l 5
 0 1504 l 5
 337 1530 l 5
 367 1502 l 5
 367 1032 l 5
 349 906 l 5
 363 906 l 5
 459 1014 574 1092 711 1092 c 4
 946 1092 1102 881 1102 574 c 4
 1102 188 817 -28 502 -28 c 4
 392 -28 267 -2 169 60 c 5
885 496 m 4
 885 677 835 934 628 934 c 4
 560 934 463 919 367 817 c 5
 367 189 l 5
 417 139 518 106 624 106 c 4
 763 106 885 225 885 496 c 4
EndSplineSet
EndChar

StartChar: backslash
Encoding: 92 92 200
Width: 666
VWidth: 0
Flags: HW
HStem: 1472 40G<-16 133>
DStem2: 133 1502 -28 1512 0.279695 -0.960089<0 1969.82>
LayerCount: 3
Back
SplineSet
72 -456 m 5
 60 -339 l 5
 323 -315 l 5
 323 1393 l 5
 62 1418 l 5
 76 1526 l 5
 506 1526 l 5
 507 -458 l 5
 72 -456 l 5
EndSplineSet
Fore
SplineSet
133 1539 m 1
 695 -458 l 1
 538 -448 l 1
 -28 1549 l 1
 133 1539 l 1
EndSplineSet
EndChar

StartChar: bar
Encoding: 124 124 201
Width: 692
VWidth: 0
Flags: HW
LayerCount: 3
Back
SplineSet
72 -456 m 5
 60 -339 l 5
 323 -315 l 5
 323 1393 l 5
 62 1418 l 5
 76 1526 l 5
 506 1526 l 5
 507 -458 l 5
 72 -456 l 5
EndSplineSet
Fore
SplineSet
424 -462 m 5
 283 -446 l 5
 283 1532 l 5
 424 1518 l 5
 424 -462 l 5
EndSplineSet
EndChar

StartChar: bet-hb
Encoding: 1489 1489 203
Width: 1015
VWidth: 0
Flags: HW
LayerCount: 3
Fore
SplineSet
96 177 m 1
 871 217 l 1
 883 245 l 1
 924 241 l 1
 976 191 l 1
 944 20 l 1
 88 -20 l 1
 56 16 l 1
 96 177 l 1
106 873 m 1
 755 875 l 2
 799 875 819 859 823 781 c 2
 841 398 l 2
 845 310 839 154 835 122 c 1
 942 153 l 1
 928 831 l 2
 924 1014 883 1070 797 1070 c 2
 235 1070 l 1
 183 1199 l 1
 94 1187 l 1
 76 918 l 1
 106 873 l 1
508 532 m 0
40 0 m 0
508 1064 m 0
40 1064 m 0
508 0 m 0
EndSplineSet
EndChar

StartChar: braceright
Encoding: 125 125 205
Width: 811
VWidth: 0
Flags: HW
LayerCount: 3
Fore
SplineSet
151 -331 m 2
 375 -316 97 428 460 532 c 1
 460 540 l 1
 95 644 372 1380 165 1397 c 2
 66 1405 l 1
 56 1526 l 1
 179 1526 l 2
 677 1526 277 666 632 604 c 2
 691 594 l 1
 691 474 l 1
 628 464 l 2
 279 408 679 -460 175 -460 c 2
 50 -460 l 1
 60 -337 l 1
 151 -331 l 2
EndSplineSet
EndChar

StartChar: bracketright
Encoding: 93 93 207
Width: 588
VWidth: 0
Flags: HW
LayerCount: 3
Fore
SplineSet
72 -456 m 5
 60 -339 l 5
 323 -315 l 5
 323 1393 l 5
 62 1418 l 5
 76 1526 l 5
 506 1526 l 5
 507 -458 l 5
 72 -456 l 5
EndSplineSet
EndChar

StartChar: breve
Encoding: 728 728 208
Width: 766
VWidth: 0
Flags: HW
LayerCount: 3
Fore
SplineSet
147 1887 m 1
 203 1926 l 1
 213 1905 l 2
 237 1857 295 1803 377 1803 c 0
 463 1803 518 1855 550 1907 c 2
 562 1928 l 1
 612 1893 l 1
 604 1869 l 2
 572 1771 497 1671 377 1671 c 0
 248 1671 177 1769 153 1863 c 2
 147 1887 l 1
375 1506 m 0
EndSplineSet
EndChar

StartChar: brokenbar
Encoding: 166 166 209
Width: 692
VWidth: 0
Flags: HW
LayerCount: 3
Fore
SplineSet
278 -446 m 1
 278 513 l 1
 423 499 l 1
 423 -462 l 1
 278 -446 l 1
278 657 m 1
 278 1532 l 1
 421 1518 l 1
 419 643 l 1
 278 657 l 1
EndSplineSet
EndChar

StartChar: c
Encoding: 99 99 211
Width: 953
VWidth: 0
Flags: HW
LayerCount: 3
Fore
SplineSet
660 109 m 4
 780 109 848 149 906 185 c 5
 936 114 l 5
 872 36 717 -36 560 -36 c 4
 267 -36 80 215 80 506 c 4
 80 867 333 1094 596 1094 c 4
 799 1094 889 1004 889 908 c 4
 889 836 837 789 735 781 c 5
 701 863 644 980 538 980 c 4
 393 980 299 835 299 616 c 4
 299 413 407 109 660 109 c 4
EndSplineSet
EndChar

StartChar: caron
Encoding: 711 711 213
Width: 795
VWidth: 0
Flags: HW
LayerCount: 3
Fore
SplineSet
369 1650 m 1
 151 1851 l 1
 249 1926 l 1
 430 1751 l 1
 442 1751 l 1
 592 1922 l 1
 645 1885 l 1
 436 1667 l 1
 369 1650 l 1
408 1506 m 0
EndSplineSet
EndChar

StartChar: cedilla
Encoding: 184 184 216
Width: 467
VWidth: 0
Flags: HW
LayerCount: 3
Fore
SplineSet
259 -92 m 5
 305 -132 367 -193 367 -275 c 4
 367 -371 265 -432 124 -474 c 5
 100 -402 l 5
 170 -378 205 -337 205 -301 c 4
 205 -259 160 -209 116 -167 c 5
 235 4 l 5
 325 4 l 5
 259 -92 l 5
275 0 m 4
EndSplineSet
EndChar

StartChar: cent
Encoding: 162 162 217
Width: 975
VWidth: 0
Flags: HW
LayerCount: 3
Back
SplineSet
681 1088 m 5
 840 1072 910 992 910 906 c 4
 910 834 859 787 757 779 c 5
 749 815 725 902 659 948 c 5
 552 126 l 5
 586 112 627 104 671 104 c 4
 781 104 860 149 922 191 c 5
 928 181 940 152 950 120 c 5
 848 14 729 -36 560 -36 c 4
 546 -36 534 -36 522 -34 c 5
 508 -139 l 5
 363 -163 l 5
 386 2 l 5
 209 82 102 281 102 506 c 4
 102 831 307 1046 538 1086 c 5
 558 1233 l 5
 703 1259 l 5
 681 1088 l 5
424 229 m 5
 520 970 l 5
 404 940 337 783 337 576 c 4
 337 456 360 323 424 229 c 5
EndSplineSet
Fore
SplineSet
601 1510 m 1
 762 1520 l 1
 691 1052 l 1
 657 1004 l 1
 521 84 l 1
 528 32 l 1
 455 -432 l 1
 298 -442 l 1
 377 64 l 1
 418 116 l 1
 547 1012 l 1
 531 1044 l 1
 601 1510 l 1
620 129 m 0
 740 129 848 149 906 185 c 1
 936 114 l 1
 872 36 717 -36 560 -36 c 0
 267 -36 80 215 80 506 c 0
 80 867 333 1094 596 1094 c 0
 799 1094 889 1004 889 908 c 0
 889 836 837 789 735 781 c 1
 701 863 644 980 538 980 c 0
 393 980 289 835 289 616 c 0
 289 413 367 129 620 129 c 0
EndSplineSet
EndChar

StartChar: circumflex
Encoding: 710 710 218
Width: 789
VWidth: 0
Flags: HW
LayerCount: 3
Fore
SplineSet
418 1922 m 5
 634 1697 l 5
 574 1652 l 5
 375 1785 l 5
 363 1785 l 5
 193 1650 l 5
 147 1687 l 5
 351 1905 l 5
 418 1922 l 5
EndSplineSet
EndChar

StartChar: colon
Encoding: 58 58 219
Width: 491
VWidth: 0
Flags: HW
LayerCount: 3
Fore
SplineSet
251 1036 m 0
 325 1036 388 980 388 906 c 0
 388 828 325 765 251 765 c 0
 175 765 114 830 114 908 c 0
 114 982 177 1036 251 1036 c 0
251 273 m 0
 325 273 388 215 388 143 c 0
 388 65 325 2 251 2 c 0
 175 2 114 67 114 145 c 0
 114 217 177 273 251 273 c 0
EndSplineSet
EndChar

StartChar: comma
Encoding: 44 44 220
Width: 443
VWidth: 0
Flags: HW
LayerCount: 3
Fore
SplineSet
24 -297 m 1
 183 -255 245 -164 245 -86 c 0
 245 -18 190 44 104 44 c 0
 92 44 80 44 68 42 c 1
 58 68 50 90 50 118 c 0
 50 216 137 265 199 265 c 0
 283 265 412 195 412 12 c 0
 412 -102 371 -297 52 -381 c 1
 24 -297 l 1
EndSplineSet
EndChar

StartChar: copyright
Encoding: 169 169 221
Width: 1680
VWidth: 0
Flags: HW
LayerCount: 3
Fore
SplineSet
833 1448 m 0
 462 1448 215 1177 215 767 c 0
 215 355 460 82 831 82 c 0
 1212 82 1466 347 1466 745 c 0
 1466 1167 1212 1448 833 1448 c 0
1600 757 m 0
 1600 283 1289 -32 821 -32 c 0
 377 -32 80 281 80 753 c 0
 80 1237 381 1558 833 1558 c 0
 1293 1558 1600 1237 1600 757 c 0
EndSplineSet
Refer: 211 99 N 0.823 0 0 0.823 365 349 2
EndChar

StartChar: currency
Encoding: 164 164 222
Width: 945
VWidth: 0
Flags: HW
LayerCount: 3
Fore
SplineSet
472 815 m 0
 360 815 285 729 285 600 c 0
 285 469 362 381 474 381 c 0
 590 381 669 466 669 592 c 0
 669 727 590 815 472 815 c 0
211 404 m 1
 179 454 157 530 157 594 c 0
 157 650 175 719 203 763 c 1
 94 867 l 1
 197 968 l 1
 291 861 l 1
 343 905 418 934 478 934 c 0
 544 934 621 909 669 873 c 1
 763 970 l 1
 855 863 l 1
 753 773 l 1
 779 727 797 654 797 596 c 0
 797 534 777 462 745 416 c 1
 859 311 l 1
 753 211 l 1
 657 321 l 1
 601 287 526 263 468 263 c 0
 420 263 355 283 305 313 c 1
 211 205 l 1
 108 309 l 1
 211 404 l 1
EndSplineSet
EndChar

StartChar: d
Encoding: 100 100 223
Width: 1226
VWidth: 0
Flags: HW
LayerCount: 3
Fore
SplineSet
825 159 m 5
 813 159 l 5
 745 65 645 -26 476 -26 c 4
 261 -26 80 151 80 486 c 4
 80 839 361 1096 612 1096 c 4
 692 1096 781 1070 821 1040 c 5
 831 1040 l 5
 815 1197 l 5
 815 1351 l 5
 630 1418 l 5
 647 1508 l 5
 984 1538 l 5
 1012 1508 l 5
 1012 261 l 6
 1012 132 1064 126 1144 108 c 6
 1199 96 l 5
 1185 -6 l 5
 1113 -24 1082 -28 1006 -28 c 4
 884 -28 825 49 825 151 c 6
 825 159 l 5
813 239 m 5
 813 809 l 5
 749 915 636 976 554 976 c 4
 363 976 295 795 295 562 c 4
 295 273 411 129 564 129 c 4
 666 129 771 189 813 239 c 5
602 532 m 4
EndSplineSet
EndChar

StartChar: dagger
Encoding: 8224 8224 224
Width: 1122
VWidth: 0
Flags: HW
LayerCount: 3
Fore
SplineSet
630 996 m 1
 1002 1006 l 1
 994 857 l 1
 630 871 l 1
 649 -442 l 1
 472 -426 l 1
 490 873 l 1
 120 865 l 1
 129 1006 l 1
 490 996 l 1
 480 1526 l 1
 643 1512 l 1
 630 996 l 1
EndSplineSet
EndChar

StartChar: daggerdbl
Encoding: 8225 8225 225
Width: 1122
VWidth: 0
Flags: HW
LayerCount: 3
Fore
SplineSet
618 522 m 1
 622 211 l 1
 1002 219 l 1
 994 78 l 1
 622 88 l 1
 632 -442 l 1
 470 -428 l 1
 482 88 l 1
 133 78 l 1
 141 227 l 1
 482 213 l 1
 492 606 l 1
 488 873 l 1
 120 865 l 1
 129 1006 l 1
 488 996 l 1
 478 1526 l 1
 641 1512 l 1
 628 996 l 1
 998 1006 l 1
 990 857 l 1
 628 871 l 1
 618 522 l 1
EndSplineSet
EndChar

StartChar: dalet-hb
Encoding: 1491 1491 226
Width: 959
VWidth: 0
Flags: HW
LayerCount: 3
Fore
SplineSet
685 18 m 1
 707 910 l 1
 785 910 l 1
 807 293 l 1
 843 8 l 1
 727 -12 l 1
 685 18 l 1
849 1070 m 1
 163 1070 l 1
 120 1199 l 1
 30 1187 l 1
 10 912 l 1
 42 875 l 1
 713 875 l 1
 767 855 l 1
 847 875 l 1
 881 1032 l 1
 849 1070 l 1
480 532 m 0
40 0 m 0
480 1064 m 0
40 1064 m 0
480 0 m 0
EndSplineSet
EndChar

StartChar: degree
Encoding: 176 176 231
Width: 491
VWidth: 0
Flags: HW
LayerCount: 3
Fore
SplineSet
235 1504 m 0
 163 1504 131 1435 131 1367 c 0
 131 1293 169 1211 247 1211 c 0
 313 1211 351 1261 351 1349 c 0
 351 1425 311 1504 235 1504 c 0
249 1562 m 0
 365 1562 438 1479 438 1365 c 0
 438 1255 357 1153 233 1153 c 0
 121 1153 44 1229 44 1353 c 0
 44 1465 135 1562 249 1562 c 0
EndSplineSet
EndChar

StartChar: dieresis
Encoding: 168 168 232
Width: 835
VWidth: 0
Flags: HW
LayerCount: 3
Fore
SplineSet
578 1875 m 0
 632 1875 685 1837 685 1781 c 0
 685 1721 632 1683 578 1683 c 0
 526 1683 476 1721 476 1781 c 0
 476 1839 528 1875 578 1875 c 0
253 1875 m 0
 307 1875 357 1837 357 1781 c 0
 357 1721 307 1683 253 1683 c 0
 201 1683 151 1721 151 1781 c 0
 151 1839 203 1875 253 1875 c 0
416 1526 m 0
EndSplineSet
EndChar

StartChar: dieresiscomb
Encoding: 776 776 233
Width: 0
VWidth: 0
Flags: HW
LayerCount: 3
Fore
SplineSet
0 1982 m 0
EndSplineSet
Refer: 232 168 N 1 0 0 1 0 0 2
EndChar

StartChar: divide
Encoding: 247 247 234
Width: 1202
VWidth: 0
Flags: HW
LayerCount: 3
Fore
SplineSet
592 1098 m 0
 672 1098 739 1038 739 960 c 0
 739 878 672 811 592 811 c 0
 512 811 448 880 448 962 c 0
 448 1040 514 1098 592 1098 c 0
592 414 m 0
 672 414 739 353 739 275 c 0
 739 193 672 126 592 126 c 0
 512 126 448 195 448 277 c 0
 448 355 514 414 592 414 c 0
114 681 m 1
 1102 681 l 1
 1088 552 l 1
 100 552 l 1
 114 681 l 1
EndSplineSet
EndChar

StartChar: dollar
Encoding: 36 36 236
Width: 1050
VWidth: 0
Flags: HW
LayerCount: 3
Back
SplineSet
873 1078 m 5
 753 1092 l 5
 721 1325 l 5
 699 1369 614 1440 516 1440 c 4
 394 1440 293 1370 293 1211 c 4
 293 862 1004 888 1004 430 c 4
 1004 151 741 -30 464 -30 c 4
 289 -30 132 53 54 149 c 5
 70 474 l 5
 195 456 l 5
 241 227 l 5
 285 157 378 94 492 94 c 4
 621 94 781 168 781 349 c 4
 781 664 84 662 84 1114 c 4
 84 1389 317 1544 556 1544 c 4
 687 1544 804 1502 900 1422 c 5
 900 1412 873 1078 873 1078 c 5
538 0 m 4
EndSplineSet
Fore
SplineSet
444 1696 m 1
 596 1716 l 1
 596 1512 l 1
 567 1464 l 1
 567 810 l 1
 571 708 l 1
 571 66 l 1
 597 24 l 1
 597 -199 l 1
 437 -219 l 1
 437 12 l 1
 464 66 l 1
 464 768 l 1
 468 852 l 1
 468 1470 l 1
 444 1512 l 1
 444 1696 l 1
873 1078 m 1
 753 1092 l 1
 721 1325 l 1
 699 1369 614 1440 516 1440 c 0
 394 1440 293 1370 293 1211 c 0
 293 850 1004 883 1004 430 c 0
 1004 151 741 -30 464 -30 c 0
 289 -30 132 53 54 149 c 1
 70 474 l 1
 195 456 l 1
 241 227 l 1
 285 157 378 94 492 94 c 0
 621 94 781 168 781 349 c 0
 781 677 84 671 84 1114 c 0
 84 1389 317 1544 556 1544 c 0
 687 1544 804 1502 900 1422 c 1
 900 1412 873 1078 873 1078 c 1
EndSplineSet
EndChar

StartChar: dotaccent
Encoding: 729 729 237
Width: 594
VWidth: 0
Flags: HW
LayerCount: 3
Fore
SplineSet
295 1936 m 0
 375 1936 444 1875 444 1797 c 0
 444 1715 375 1648 295 1648 c 0
 215 1648 151 1717 151 1799 c 0
 151 1877 219 1936 295 1936 c 0
297 1506 m 0
EndSplineSet
EndChar

StartChar: dotaccentcomb
Encoding: 775 775 238
Width: 0
VWidth: 0
Flags: HW
LayerCount: 3
Fore
SplineSet
408 1763 m 27
 408 1690 349 1632 276 1632 c 27
 204 1632 147 1691 147 1763 c 27
 147 1834 205 1893 276 1893 c 27
 348 1893 408 1835 408 1763 c 27
0 1982 m 0
EndSplineSet
EndChar

StartChar: dotbelowcomb
Encoding: 803 803 239
Width: 0
VWidth: 0
Flags: HW
LayerCount: 3
Fore
SplineSet
261 -331 m 27
 261 -404 202 -462 129 -462 c 27
 57 -462 0 -403 0 -331 c 27
 0 -260 58 -201 129 -201 c 27
 201 -201 261 -259 261 -331 c 27
138 -540 m 0
129 0 m 0
EndSplineSet
EndChar

StartChar: dotlessi
Encoding: 305 305 240
Width: 696
VWidth: 0
Flags: HW
LayerCount: 3
Fore
SplineSet
74 96 m 1
 259 141 l 1
 259 889 l 1
 74 956 l 1
 90 1048 l 1
 432 1076 l 1
 462 1046 l 1
 462 141 l 1
 657 98 l 1
 643 0 l 1
 60 0 l 1
 74 96 l 1
EndSplineSet
EndChar

StartChar: e
Encoding: 101 101 241
Width: 1003
VWidth: 0
Flags: HW
LayerCount: 3
Fore
SplineSet
879 548 m 5
 291 542 l 5
 301 351 403 124 630 124 c 4
 716 124 780 123 906 191 c 5
 932 126 l 5
 836 26 693 -36 532 -36 c 4
 303 -36 74 151 74 520 c 4
 74 885 339 1092 574 1092 c 4
 751 1092 900 964 900 707 c 4
 900 669 889 590 879 548 c 5
293 637 m 5
 675 663 l 5
 681 683 683 727 683 747 c 4
 683 892 630 974 514 974 c 4
 416 974 305 874 293 637 c 5
EndSplineSet
EndChar

StartChar: eight
Encoding: 56 56 256
Width: 1222
VWidth: 0
Flags: HW
HStem: -32 112<490 789> 1367 92<464 723>
VStem: 153 201<221 490> 209 183<1030 1237> 827 179<960 1253> 875 193<201 436>
LayerCount: 3
Back
SplineSet
528.062 674.636 m 1
 450.962 624.439 369.042 497.945 369.042 369.443 c 0
 369.042 224.879 484.693 80.3135 638.896 80.3135 c 0
 802.735 80.3135 913.568 160.628 913.568 323.263 c 0
 913.568 453.772 740.091 564.204 528.062 674.636 c 1
128.1 341.333 m 0
 128.1 477.867 234.114 606.369 443.733 716.8 c 1
 443.733 726.839 l 1
 335.31 781.051 193.155 915.576 193.155 1078.21 c 0
 193.155 1283.01 400.364 1459.7 655.762 1459.7 c 0
 906.341 1459.7 1067.77 1329.19 1067.77 1146.48 c 0
 1067.77 1003.92 995.488 889.475 826.83 785.066 c 1
 824.421 773.02 l 1
 1038.86 660.58 1144.87 524.047 1144.87 375.467 c 0
 1144.87 152.596 908.75 -32.126 573.842 -32.126 c 0
 306.396 -32.126 128.1 108.424 128.1 341.333 c 0
728.044 823.216 m 1
 788.279 877.428 853.333 947.702 853.333 1102.31 c 0
 853.333 1232.82 771.413 1367.34 617.211 1367.34 c 0
 501.56 1367.34 412.411 1287.03 412.411 1188.64 c 0
 412.411 1056.13 523.244 921.6 728.044 823.216 c 1
EndSplineSet
Fore
SplineSet
522 675 m 1xe4
 442 603 353 538 353 369 c 3
 353 224 485 80 614 80 c 3
 795 80 875 160 875 323 c 3
 875 454 699 565 522 675 c 1xe4
153 341 m 3
 153 478 255 603 450 717 c 1
 450 727 l 1
 360 781 209 907 209 1070 c 3
 209 1275 391 1460 626 1460 c 3
 857 1460 1004 1309 1004 1126 c 3xd8
 1004 983 908 835 771 785 c 1
 767 773 l 1
 946 661 1068 524 1068 375 c 3
 1068 152 881 -32 558 -32 c 3
 335 -32 153 108 153 341 c 3
687 823 m 1
 777 875 827 937 827 1082 c 3
 827 1253 723 1367 594 1367 c 3
 455 1367 390 1259 390 1161 c 3
 390 1028 516 921 687 823 c 1
EndSplineSet
EndChar

StartChar: emdash
Encoding: 8212 8212 259
Width: 1582
VWidth: 0
Flags: HW
LayerCount: 3
Fore
SplineSet
120 624 m 1
 1482 632 l 1
 1462 506 l 1
 100 498 l 1
 120 624 l 1
EndSplineSet
EndChar

StartChar: emptyset
Encoding: 8709 8709 260
Width: 1204
VWidth: 0
Flags: HW
LayerCount: 3
Fore
SplineSet
183 538 m 0
 183 237 389 80 588 80 c 0
 817 80 984 233 984 540 c 0
 984 839 795 1000 586 1000 c 0
 357 1000 183 819 183 538 c 0
1140 538 m 0
 1140 225 925 -46 588 -46 c 0
 277 -46 28 185 28 540 c 0
 28 849 301 1130 586 1130 c 0
 925 1130 1140 867 1140 538 c 0
0 116 m 1
 1076 1082 l 1
 1146 972 l 1
 70 6 l 1
 0 116 l 1
EndSplineSet
EndChar

StartChar: endash
Encoding: 8211 8211 261
Width: 963
VWidth: 0
Flags: HW
LayerCount: 3
Fore
SplineSet
120 624 m 1
 863 632 l 1
 843 506 l 1
 100 498 l 1
 120 624 l 1
EndSplineSet
EndChar

StartChar: equal
Encoding: 61 61 263
Width: 965
VWidth: 0
Flags: HW
LayerCount: 3
Fore
SplineSet
114 516 m 5
 861 516 l 5
 847 388 l 5
 100 388 l 5
 114 516 l 5
118 807 m 5
 865 807 l 5
 851 679 l 5
 104 679 l 5
 118 807 l 5
EndSplineSet
EndChar

StartChar: eth
Encoding: 240 240 264
Width: 1160
VWidth: 0
Flags: HW
LayerCount: 3
Fore
SplineSet
1060 566 m 0
 1060 191 841 -32 580 -32 c 0
 243 -32 100 253 100 548 c 0
 100 907 319 1153 578 1153 c 0
 626 1153 731 1134 767 1042 c 1
 775 1044 l 1
 749 1128 695 1217 641 1303 c 1
 379 1253 l 1
 392 1345 l 1
 596 1385 l 1
 540 1465 480 1536 426 1584 c 1
 568 1584 l 1
 608 1560 679 1506 753 1424 c 1
 936 1460 l 1
 924 1367 l 1
 817 1345 l 1
 943 1176 1060 921 1060 566 c 0
317 606 m 1
 321 275 439 86 608 86 c 0
 797 86 849 255 849 516 c 0
 849 801 703 1036 562 1040 c 1
 554 1040 l 2
 383 1040 317 863 317 606 c 1
EndSplineSet
EndChar

StartChar: exclam
Encoding: 33 33 266
Width: 590
VWidth: 0
Flags: HW
LayerCount: 3
Fore
SplineSet
349 442 m 1
 349 434 l 1
 241 458 l 1
 241 462 l 1
 211 854 177 1387 177 1520 c 2
 177 1524 l 1
 187 1558 293 1572 337 1572 c 0
 369 1572 416 1562 416 1524 c 0
 416 1319 381 834 349 442 c 1
448 110 m 0
 448 24 379 -44 295 -44 c 0
 211 -44 145 26 145 112 c 0
 145 194 215 255 295 255 c 0
 377 255 448 192 448 110 c 0
EndSplineSet
EndChar

StartChar: exclamdown
Encoding: 161 161 267
Width: 590
VWidth: 0
Flags: HW
LayerCount: 3
Fore
SplineSet
243 649 m 1
 243 657 l 1
 351 632 l 1
 351 628 l 1
 381 236 416 -323 416 -456 c 2
 416 -460 l 1
 406 -494 299 -508 255 -508 c 0
 223 -508 177 -498 177 -460 c 0
 177 -255 211 257 243 649 c 1
145 954 m 0
 145 1040 213 1108 297 1108 c 0
 381 1108 448 1038 448 952 c 0
 448 870 377 809 297 809 c 0
 215 809 145 872 145 954 c 0
EndSplineSet
EndChar

StartChar: f
Encoding: 102 102 268
Width: 744
VWidth: 0
Flags: HW
LayerCount: 3
Fore
SplineSet
452 1193 m 1
 450 1062 l 1
 763 1062 l 1
 747 954 l 1
 450 954 l 1
 450 147 l 1
 749 102 l 1
 739 0 l 1
 48 0 l 1
 62 88 l 1
 247 141 l 1
 247 954 l 1
 66 954 l 1
 80 1042 l 1
 249 1070 l 1
 289 1421 532 1586 705 1586 c 0
 834 1586 932 1544 932 1446 c 0
 932 1386 863 1325 823 1309 c 1
 775 1369 686 1458 610 1458 c 0
 520 1458 458 1402 452 1193 c 1
EndSplineSet
EndChar

StartChar: f.alt2
Encoding: 65536 -1 269
Width: 744
VWidth: 0
Flags: HW
LayerCount: 3
Fore
SplineSet
452 1193 m 1
 450 1062 l 1
 763 1062 l 1
 747 954 l 1
 450 954 l 1
 450 147 l 1
 749 102 l 1
 739 0 l 1
 48 0 l 1
 62 88 l 1
 247 141 l 1
 247 954 l 1
 66 954 l 1
 80 1042 l 1
 249 1070 l 1
 289 1421 496 1584 610 1584 c 0
 716 1584 781 1558 781 1476 c 0
 781 1428 739 1381 703 1361 c 1
 673 1393 608 1442 554 1442 c 0
 482 1442 458 1402 452 1193 c 1
EndSplineSet
EndChar

StartChar: five
Encoding: 53 53 270
Width: 1222
VWidth: 0
Flags: HW
HStem: -60 112<341 548>
VStem: 861 223<285 574>
DStem2: 295 801 450 976 0.241797 0.970327<206.882 479.587> 450 1422 514 1241 0.998009 0.0630712<52.7258 499.1>
LayerCount: 3
Fore
SplineSet
323 52 m 17
 666 84 861 217 861 392 c 3
 861 633 699 775 295 801 c 1
 450 1422 l 1
 990 1456 l 1
 960 1265 l 1
 514 1241 l 1
 450 976 l 1
 860 952 1084 751 1084 470 c 3
 1084 221 867 -28 345 -60 c 1
 323 52 l 17
EndSplineSet
EndChar

StartChar: four
Encoding: 52 52 271
Width: 1222
VWidth: 0
Flags: HW
HStem: -14 42G<667 867> 434 149<253 663 867 1157>
VStem: 667 203<18 430 582 1106>
DStem2: 48 524 253 582 0.630213 0.776422<175.542 840.559>
LayerCount: 3
Fore
SplineSet
667 -14 m 5
 667 434 l 5
 76 434 l 5
 48 524 l 5
 799 1452 l 5
 879 1430 l 5
 871 1285 867 1052 867 831 c 6
 867 582 l 5
 1177 582 l 5
 1157 430 l 5
 867 430 l 5
 867 18 l 5
 667 -14 l 5
663 582 m 5
 663 1106 l 5
 253 582 l 5
 663 582 l 5
EndSplineSet
EndChar

StartChar: fraction
Encoding: 8260 8260 272
Width: 1273
VWidth: 0
Flags: HW
LayerCount: 3
Fore
SplineSet
1026 1167 m 1
 1124 1177 l 1
 289 -26 l 1
 187 -36 l 1
 1026 1167 l 1
EndSplineSet
EndChar

StartChar: g
Encoding: 103 103 273
Width: 1072
VWidth: 0
Flags: HW
LayerCount: 3
Fore
SplineSet
303 739 m 0
 303 570 416 462 504 462 c 0
 612 462 683 534 683 705 c 0
 683 836 615 1000 486 1000 c 0
 362 1000 303 898 303 739 c 0
522 183 m 2
 689 183 l 2
 870 183 1026 149 1026 -62 c 0
 1026 -273 743 -470 466 -470 c 0
 243 -470 26 -406 26 -197 c 0
 26 -85 161 -12 221 22 c 1
 221 32 l 1
 145 68 104 129 104 199 c 0
 104 265 217 362 307 398 c 1
 307 408 l 1
 245 424 108 552 108 717 c 0
 108 918 309 1090 514 1090 c 0
 626 1090 709 1058 771 1014 c 1
 789 1014 1032 1032 1032 1032 c 1
 1056 1004 l 1
 1010 869 l 1
 990 869 l 1
 839 918 l 1
 839 898 l 1
 855 864 881 791 881 729 c 0
 881 506 655 367 470 367 c 0
 422 367 375 375 361 379 c 1
 333 349 299 309 299 271 c 0
 299 221 332 183 522 183 c 2
303 4 m 1
 303 4 241 -19 241 -131 c 0
 241 -294 375 -339 532 -339 c 0
 691 -339 819 -283 819 -122 c 0
 819 -14 733 4 514 4 c 2
 303 4 l 1
532 1064 m 0
EndSplineSet
EndChar

StartChar: germandbls
Encoding: 223 223 277
Width: 1397
VWidth: 0
Flags: HW
LayerCount: 3
Back
SplineSet
1130.42 718.808 m 1
 1120.38 771.012 l 2
 1086.24 951.718 1011.95 995.891 939.671 995.891 c 0
 853.333 995.891 803.138 925.615 803.138 847.31 c 0
 803.138 632.433 1337.22 600.345 1337.22 267.043 c 0
 1337.22 86.3369 1148.49 -38.1494 961.757 -38.1494 c 0
 744.91 -38.1494 610.385 64.251 610.385 174.683 c 0
 610.385 257.004 670.619 327.278 771.012 335.31 c 1
 823.216 164.644 907.545 82.3213 999.906 82.3213 c 0
 1086.24 82.3213 1160.53 110.343 1160.53 200.784 c 0
 1160.53 375.651 638.494 421.647 638.494 758.965 c 0
 638.494 899.514 756.883 1100.3 1001.91 1100.3 c 3
 1160.53 1100.3 1299.07 1032.16 1299.07 897.506 c 3
 1299.07 796.793 1236.83 726.839 1130.42 718.808 c 1
1017.98 4.01562 m 0
973.804 1068.17 m 0
EndSplineSet
Fore
SplineSet
452 0 m 1
 48 0 l 1
 62 88 l 1
 247 141 l 1
 247 954 l 1
 70 954 l 1
 82 1032 l 1
 249 1060 l 1
 267 1329 458 1588 737 1588 c 3
 934 1588 1060 1452 1060 1281 c 3
 1060 1042 799 978 799 831 c 3
 799 622 1339 604 1339 271 c 3
 1339 90 1153 -38 966 -38 c 3
 749 -38 612 63 612 173 c 3
 612 277 683 329 771 335 c 1
 809 176 912 82 1004 82 c 3
 1090 82 1163 103 1163 203 c 3
 1163 374 643 420 643 747 c 3
 643 970 871 1036 871 1209 c 3
 871 1350 786 1456 649 1456 c 3
 527 1456 450 1365 450 1106 c 2
 452 0 l 1
EndSplineSet
Layer: 2
SplineSet
451.765 1192.66 m 1
 449.757 1062.15 l 1
 762.98 1062.15 l 1
 746.918 953.726 l 1
 449.757 953.726 l 1
 449.757 146.572 l 1
 748.926 102.4 l 1
 738.887 0 l 1
 48.1885 0 l 1
 62.2432 88.3447 l 1
 246.965 140.549 l 1
 246.965 953.726 l 1
 66.2588 953.726 l 1
 80.3135 1042.07 l 1
 248.973 1070.18 l 1
 289.13 1421.55 532.078 1586.2 704.753 1586.2 c 0
 833.255 1586.2 931.64 1544.03 931.64 1445.65 c 0
 931.64 1385.41 863.373 1325.18 823.216 1309.11 c 1
 775.027 1369.35 687.104 1457.69 610.385 1457.69 c 0
 520.031 1457.69 457.788 1401.47 451.765 1192.66 c 1
EndSplineSet
EndChar

StartChar: gimel-hb
Encoding: 1490 1490 278
Width: 702
VWidth: 0
Flags: HW
LayerCount: 3
Fore
SplineSet
482 414 m 1
 536 313 l 1
 490 313 l 1
 464 197 419 56 321 0 c 1
 102 0 l 1
 62 88 76 187 100 221 c 1
 313 147 432 292 482 414 c 1
570 809 m 2
 586 442 l 2
 594 273 655 78 667 14 c 1
 554 -6 l 1
 526 24 l 1
 504 333 l 1
 480 351 l 1
 482 741 l 2
 482 799 460 821 414 835 c 2
 181 904 l 1
 159 932 l 1
 179 1189 l 1
 261 1197 l 1
 303 1086 l 1
 440 1046 l 2
 504 1028 562 992 570 809 c 2
351 532 m 0
40 0 m 0
351 1064 m 0
40 1064 m 0
351 0 m 0
EndSplineSet
EndChar

StartChar: grave
Encoding: 96 96 279
Width: 771
VWidth: 0
Flags: HW
LayerCount: 3
Fore
SplineSet
199 2018 m 1
 339 2064 l 1
 500 1658 l 1
 430 1616 l 1
 199 2018 l 1
386 1506 m 0
EndSplineSet
EndChar

StartChar: greater
Encoding: 62 62 280
Width: 831
VWidth: 0
Flags: HW
LayerCount: 3
Fore
SplineSet
791 520 m 1
 116 -100 l 1
 40 -16 l 1
 504 552 l 1
 64 1096 l 1
 133 1183 l 1
 789 554 l 1
 791 520 l 1
EndSplineSet
EndChar

StartChar: guilsinglleft
Encoding: 8249 8249 284
Width: 576
VWidth: 0
Flags: HW
LayerCount: 3
Fore
SplineSet
96 570 m 1
 422 998 l 1
 476 926 l 1
 275 560 l 1
 480 171 l 1
 416 94 l 1
 98 546 l 1
 96 570 l 1
EndSplineSet
EndChar

StartChar: h
Encoding: 104 104 286
Width: 1297
VWidth: 0
Flags: HW
LayerCount: 3
Fore
SplineSet
1088 729 m 2
 1088 139 l 1
 1265 96 l 1
 1251 0 l 1
 705 0 l 1
 719 90 l 1
 883 139 l 1
 887 697 l 1
 887 705 l 2
 887 878 773 930 677 930 c 0
 607 930 528 909 442 821 c 1
 442 141 l 1
 620 98 l 1
 606 0 l 1
 40 0 l 1
 54 96 l 1
 241 141 l 1
 241 1359 l 1
 46 1424 l 1
 60 1516 l 1
 412 1544 l 1
 442 1514 l 1
 442 1034 l 1
 422 906 l 1
 436 906 l 1
 536 1018 656 1096 793 1096 c 0
 962 1096 1088 1024 1088 729 c 2
649 532 m 0
775 1064 m 0
EndSplineSet
EndChar

StartChar: he-hb
Encoding: 1492 1492 288
Width: 945
VWidth: 0
Flags: HW
LayerCount: 3
Fore
SplineSet
66 10 m 1
 100 691 l 1
 183 701 l 1
 201 329 l 2
 207 219 217 112 229 0 c 1
 108 -20 l 1
 66 10 l 1
685 18 m 1
 707 910 l 1
 785 910 l 1
 811 329 l 2
 817 184 827 104 843 8 c 1
 727 -12 l 1
 685 18 l 1
849 1070 m 1
 163 1070 l 1
 120 1199 l 1
 30 1187 l 1
 10 912 l 1
 42 875 l 1
 713 875 l 1
 767 855 l 1
 847 875 l 1
 881 1032 l 1
 849 1070 l 1
474 532 m 0
40 0 m 0
474 1064 m 0
40 1064 m 0
474 0 m 0
EndSplineSet
EndChar

StartChar: het-hb
Encoding: 1495 1495 289
Width: 945
VWidth: 0
Flags: HW
LayerCount: 3
Fore
SplineSet
191 875 m 1
 203 369 l 2
 205 259 219 76 229 0 c 1
 108 -20 l 1
 66 10 l 1
 104 912 l 1
 116 1187 l 1
 207 1199 l 1
 249 1070 l 1
 908 1070 l 1
 940 1032 l 1
 906 875 l 1
 825 855 l 1
 771 875 l 1
 191 875 l 1
743 18 m 1
 765 910 l 1
 843 910 l 1
 869 329 l 2
 875 184 886 104 902 8 c 1
 785 -12 l 1
 743 18 l 1
474 532 m 0
40 0 m 0
474 1064 m 0
40 1064 m 0
474 0 m 0
EndSplineSet
EndChar

StartChar: hungarumlaut
Encoding: 733 733 290
Width: 945
VWidth: 0
Flags: HW
LayerCount: 3
Fore
SplineSet
795 1855 m 1
 442 1652 l 1
 408 1713 l 1
 707 1956 l 1
 795 1855 l 1
550 1861 m 1
 185 1652 l 1
 151 1713 l 1
 460 1966 l 1
 550 1861 l 1
363 1506 m 0
EndSplineSet
EndChar

StartChar: hyphen
Encoding: 45 45 291
Width: 692
VWidth: 0
Flags: HW
LayerCount: 3
Fore
SplineSet
110 606 m 1
 606 628 l 1
 592 506 l 1
 96 484 l 1
 110 606 l 1
EndSplineSet
EndChar

StartChar: i
Encoding: 105 105 292
Width: 696
VWidth: 0
Flags: HW
LayerCount: 3
Back
SplineSet
74 96 m 1
 259 141 l 1
 259 889 l 1
 74 956 l 1
 90 1048 l 1
 432 1076 l 1
 462 1046 l 1
 462 141 l 1
 657 98 l 1
 643 0 l 1
 60 0 l 1
 74 96 l 1
EndSplineSet
Fore
Refer: 240 305 N 1 0 0 1 0 0 2
Refer: 237 729 N 1 0 0 1 54 -347 2
EndChar

StartChar: infinity
Encoding: 8734 8734 302
Width: 1694
VWidth: 0
Flags: HW
LayerCount: 3
Fore
SplineSet
414 877 m 0
 257 877 181 788 181 657 c 0
 181 533 319 440 458 440 c 0
 582 440 715 500 765 564 c 1
 645 737 538 877 414 877 c 0
72 604 m 0
 72 873 251 1062 464 1062 c 0
 609 1062 725 1002 835 823 c 1
 847 825 l 1
 961 978 1088 1056 1241 1056 c 0
 1438 1056 1580 900 1580 671 c 0
 1580 442 1392 247 1169 249 c 0
 994 249 881 384 817 494 c 1
 807 494 l 1
 697 319 563 247 432 247 c 0
 207 247 72 389 72 604 c 0
1285 440 m 0
 1393 440 1480 534 1480 638 c 0
 1480 775 1334 863 1193 863 c 0
 1024 863 947 793 889 739 c 1
 995 552 1142 440 1285 440 c 0
EndSplineSet
EndChar

StartChar: integral
Encoding: 8747 8747 303
Width: 1168
VWidth: 0
Flags: HW
LayerCount: 3
Fore
SplineSet
480 -74 m 1
 486 956 l 1
 486 1416 769 1586 942 1586 c 0
 1071 1586 1169 1544 1169 1446 c 0
 1169 1386 1100 1325 1060 1309 c 1
 1012 1369 923 1458 847 1458 c 0
 757 1458 695 1402 687 1193 c 1
 685 143 l 2
 685 -325 400 -468 227 -468 c 0
 98 -468 0 -425 0 -327 c 1
 2 -267 68 -207 108 -191 c 1
 156 -251 245 -339 321 -339 c 0
 411 -339 474 -283 480 -74 c 1
EndSplineSet
EndChar

StartChar: j
Encoding: 106 106 306
Width: 560
VWidth: 0
Flags: HW
LayerCount: 3
Fore
SplineSet
209 209 m 2
 209 889 l 1
 26 956 l 1
 44 1052 l 1
 383 1078 l 1
 414 1048 l 1
 414 183 l 2
 414 -160 239 -334 54 -436 c 2
 0 -466 l 1
 -60 -359 l 1
 71 -261 209 -120 209 209 c 2
448 1444 m 0
 448 1362 381 1293 299 1293 c 0
 217 1293 151 1364 151 1446 c 0
 151 1528 219 1590 301 1590 c 0
 381 1590 448 1524 448 1444 c 0
EndSplineSet
EndChar

StartChar: k
Encoding: 107 107 307
Width: 1200
VWidth: 0
Flags: HW
LayerCount: 3
Fore
SplineSet
472 550 m 1
 787 944 l 1
 624 994 l 1
 638 1086 l 1
 1155 1086 l 1
 1138 996 l 1
 956 946 l 1
 669 592 l 1
 765 470 l 2
 944 243 1008 120 1161 100 c 2
 1209 94 l 1
 1195 0 l 1
 1177 -6 1104 -24 1050 -24 c 0
 889 -24 799 80 600 349 c 1
 472 526 l 1
 472 550 l 1
54 96 m 1
 239 141 l 1
 239 1347 l 1
 48 1412 l 1
 62 1504 l 1
 412 1532 l 1
 442 1502 l 1
 442 1432 l 1
 442 141 l 1
 636 98 l 1
 622 0 l 1
 40 0 l 1
 54 96 l 1
592 0 m 0
EndSplineSet
EndChar

StartChar: kaf-hb
Encoding: 1499 1499 308
Width: 1084
VWidth: 0
Flags: HW
LayerCount: 3
Fore
SplineSet
131 -16 m 1
 98 20 l 1
 139 181 l 1
 689 215 l 1
 797 219 906 305 906 508 c 0
 906 713 831 819 622 841 c 2
 143 893 l 1
 112 938 l 1
 131 1209 l 1
 219 1221 l 1
 271 1092 l 1
 665 1048 l 2
 904 1022 1016 863 1016 570 c 0
 1016 301 952 128 823 18 c 1
 131 -16 l 1
542 532 m 0
40 0 m 0
542 1064 m 0
40 1064 m 0
542 0 m 0
EndSplineSet
EndChar

StartChar: kaf-hb.fina
Encoding: 1498 1498 309
Width: 959
VWidth: 0
Flags: HW
LayerCount: 3
Fore
SplineSet
691 -434 m 1
 707 910 l 1
 785 910 l 1
 831 -18 l 2
 835 -106 839 -348 851 -444 c 1
 735 -464 l 1
 691 -434 l 1
849 1070 m 1
 163 1070 l 1
 120 1199 l 1
 30 1187 l 1
 10 912 l 1
 42 875 l 1
 713 875 l 1
 767 855 l 1
 847 875 l 1
 881 1032 l 1
 849 1070 l 1
480 532 m 0
40 0 m 0
480 1064 m 0
40 1064 m 0
480 0 m 0
EndSplineSet
EndChar

StartChar: l
Encoding: 108 108 311
Width: 676
VWidth: 0
Flags: HW
LayerCount: 3
Fore
SplineSet
442 141 m 1
 636 98 l 1
 622 0 l 1
 40 0 l 1
 54 96 l 1
 239 141 l 1
 239 1359 l 1
 48 1424 l 1
 62 1516 l 1
 412 1544 l 1
 442 1514 l 1
 442 141 l 1
319 1512 m 0
636 1064 m 0
339 0 m 0
EndSplineSet
EndChar

StartChar: lamed-hb
Encoding: 1500 1500 313
Width: 1084
VWidth: 0
Flags: HW
LayerCount: 3
Fore
SplineSet
506 -20 m 1
 293 4 l 1
 269 36 l 1
 422 145 l 2
 605 276 885 494 885 697 c 0
 885 848 840 879 667 879 c 2
 147 879 l 1
 116 924 l 1
 135 1596 l 1
 321 1598 l 1
 353 1570 l 1
 345 1405 l 1
 227 1395 l 1
 249 1074 l 1
 743 1074 l 2
 958 1074 996 992 996 759 c 0
 996 490 797 304 677 171 c 2
 506 -20 l 1
542 532 m 0
40 0 m 0
542 1064 m 0
40 1064 m 0
542 0 m 0
EndSplineSet
EndChar

StartChar: logicalnot
Encoding: 172 172 320
Width: 1162
VWidth: 0
Flags: HW
LayerCount: 3
Fore
SplineSet
114 807 m 1
 1020 807 l 1
 1022 426 l 1
 893 404 l 1
 893 679 l 1
 100 679 l 1
 114 807 l 1
EndSplineSet
EndChar

StartChar: lozenge
Encoding: 9674 9674 321
Width: 1148
VWidth: 0
Flags: HW
LayerCount: 3
Fore
SplineSet
968 574 m 1
 576 165 l 1
 181 576 l 1
 574 972 l 1
 968 574 l 1
EndSplineSet
EndChar

StartChar: m
Encoding: 109 109 322
Width: 1945
VWidth: 0
Flags: HW
LayerCount: 3
Fore
SplineSet
1082 889 m 1
 1096 889 l 1
 1174 989 1303 1080 1456 1080 c 0
 1659 1080 1743 952 1743 741 c 2
 1743 141 l 1
 1911 98 l 1
 1895 2 l 1
 1377 2 l 1
 1387 90 l 1
 1538 139 l 1
 1538 711 l 2
 1538 827 1466 924 1335 924 c 0
 1227 924 1158 863 1102 803 c 1
 1102 139 l 1
 1283 96 l 1
 1271 0 l 1
 731 0 l 1
 745 90 l 1
 904 139 l 1
 904 711 l 2
 904 840 813 924 697 924 c 0
 607 924 518 889 456 819 c 1
 456 139 l 1
 630 96 l 1
 618 0 l 1
 56 0 l 1
 68 90 l 1
 251 139 l 1
 251 875 l 1
 56 936 l 1
 68 1028 l 1
 438 1078 l 1
 460 1054 l 1
 438 900 l 1
 450 900 l 1
 528 996 662 1090 815 1090 c 0
 925 1090 1044 1038 1082 889 c 1
EndSplineSet
EndChar

StartChar: macron
Encoding: 175 175 323
Width: 853
VWidth: 0
Flags: HW
LayerCount: 3
Fore
SplineSet
167 1799 m 1
 703 1799 l 1
 687 1677 l 1
 151 1677 l 1
 167 1799 l 1
424 1506 m 0
EndSplineSet
EndChar

StartChar: mem-hb
Encoding: 1502 1502 325
Width: 1017
VWidth: 0
Flags: HW
LayerCount: 3
Fore
SplineSet
129 1120 m 1
 258 1044 323 913 349 855 c 1
 349 855 495 1078 638 1078 c 0
 881 1078 978 811 984 562 c 1
 984 339 899 88 853 8 c 1
 414 -12 l 1
 381 14 l 1
 422 185 l 1
 849 203 l 1
 863 235 869 314 873 388 c 2
 879 512 l 1
 871 679 749 871 562 871 c 0
 309 871 243 558 243 305 c 0
 243 187 245 96 257 0 c 1
 141 -20 l 1
 96 10 l 1
 100 289 132 554 269 755 c 1
 88 904 l 1
 96 1096 l 1
 129 1120 l 1
510 532 m 0
40 0 m 0
510 1064 m 0
40 1064 m 0
510 0 m 0
EndSplineSet
EndChar

StartChar: mem-hb.fina
Encoding: 1501 1501 326
Width: 1015
VWidth: 0
Flags: HW
LayerCount: 3
Fore
SplineSet
279 197 m 1
 859 197 l 1
 873 229 885 315 883 377 c 2
 875 781 l 2
 873 859 851 875 807 875 c 2
 351 875 l 1
 269 795 249 715 249 643 c 0
 249 450 259 285 279 197 c 1
980 233 m 2
 980 28 899 0 839 0 c 2
 181 0 l 1
 149 36 l 1
 149 36 135 510 135 606 c 0
 135 662 161 781 269 855 c 1
 269 871 l 1
 153 871 l 1
 131 893 l 1
 143 1187 l 1
 233 1199 l 1
 275 1070 l 1
 849 1070 l 2
 935 1070 980 1014 980 831 c 2
 980 233 l 2
508 532 m 0
40 0 m 0
508 1064 m 0
40 1064 m 0
508 0 m 0
EndSplineSet
EndChar

StartChar: minus
Encoding: 8722 8722 327
Width: 963
VWidth: 0
Flags: HW
LayerCount: 3
Fore
SplineSet
120 624 m 1
 863 632 l 1
 843 506 l 1
 100 498 l 1
 120 624 l 1
EndSplineSet
EndChar

StartChar: mu
Encoding: 956 956 328
Width: 1252
VWidth: 0
Flags: HW
LayerCount: 3
Fore
SplineSet
195 600 m 2
 195 895 l 1
 28 962 l 1
 44 1058 l 1
 371 1084 l 1
 400 1054 l 1
 400 383 l 2
 400 200 478 129 588 129 c 0
 698 129 753 181 815 229 c 1
 815 889 l 1
 620 940 l 1
 632 1050 l 1
 990 1084 l 1
 1016 1054 l 1
 1016 259 l 2
 1016 130 1068 124 1148 106 c 2
 1203 94 l 1
 1193 -8 l 1
 1117 -26 1080 -30 1008 -30 c 0
 886 -30 829 47 829 147 c 2
 829 157 l 1
 815 157 l 1
 705 35 603 -30 466 -30 c 0
 390 -30 333 -4 295 46 c 1
 285 46 l 1
 289 24 297 -26 303 -104 c 2
 325 -472 l 1
 163 -440 l 1
 165 -408 195 245 195 600 c 2
EndSplineSet
EndChar

StartChar: multiply
Encoding: 215 215 329
Width: 692
VWidth: 0
Flags: HW
LayerCount: 3
Fore
SplineSet
345 472 m 1
 145 277 l 1
 64 377 l 1
 253 562 l 1
 64 753 l 1
 165 833 l 1
 351 647 l 1
 552 841 l 1
 632 739 l 1
 442 556 l 1
 634 361 l 1
 534 281 l 1
 345 472 l 1
EndSplineSet
EndChar

StartChar: n
Encoding: 110 110 330
Width: 1321
VWidth: 0
Flags: HW
LayerCount: 3
Fore
SplineSet
1110 749 m 2
 1110 139 l 1
 1285 96 l 1
 1273 0 l 1
 725 0 l 1
 739 88 l 1
 906 139 l 1
 906 701 l 2
 906 858 815 926 695 926 c 0
 607 926 518 889 456 821 c 1
 456 139 l 1
 636 96 l 1
 620 0 l 1
 56 0 l 1
 68 88 l 1
 251 139 l 1
 251 877 l 1
 64 940 l 1
 76 1032 l 1
 438 1080 l 1
 460 1056 l 1
 438 902 l 1
 450 902 l 1
 532 1000 664 1092 817 1092 c 0
 1008 1092 1110 966 1110 749 c 2
661 0 m 0
661 1064 m 0
EndSplineSet
EndChar

StartChar: nine
Encoding: 57 57 338
Width: 1222
VWidth: 0
Flags: HW
HStem: -32 90<333 422> 568 131<484 721> 1373 98<462 723>
VStem: 145 203<847 1173> 867 217<791 1181>
LayerCount: 3
Back
SplineSet
413.615 674.636 m 5
 349.364 624.439 281.098 497.945 281.098 369.443 c 4
 281.098 224.879 377.475 80.3135 505.977 80.3135 c 4
 642.51 80.3135 734.871 160.628 734.871 323.263 c 4
 734.871 453.772 590.306 564.204 413.615 674.636 c 5
80.3135 341.333 m 4
 80.3135 477.867 168.659 606.369 343.341 716.8 c 5
 343.341 726.839 l 5
 252.988 781.051 134.525 915.576 134.525 1078.21 c 4
 134.525 1283.01 307.2 1459.7 520.031 1459.7 c 4
 728.847 1459.7 863.373 1329.19 863.373 1146.48 c 4
 863.373 1003.92 803.138 889.475 662.588 785.066 c 5
 660.58 773.02 l 5
 839.278 660.58 927.624 524.047 927.624 375.467 c 4
 927.624 152.596 730.854 -32.126 451.765 -32.126 c 4
 228.895 -32.126 80.3135 108.424 80.3135 341.333 c 4
580.267 823.216 m 5
 630.463 877.428 684.675 947.702 684.675 1102.31 c 4
 684.675 1232.82 616.408 1367.34 487.906 1367.34 c 4
 391.529 1367.34 317.239 1287.03 317.239 1188.64 c 4
 317.239 1056.13 409.6 921.6 580.267 823.216 c 5
EndSplineSet
Fore
SplineSet
851 699 m 1
 835 699 l 1
 775 617 636 568 530 568 c 3
 293 568 145 755 145 976 c 3
 145 1249 389 1472 622 1472 c 3
 941 1472 1084 1213 1084 928 c 3
 1084 442 795 48 337 -32 c 1
 309 58 l 1
 707 176 827 402 851 699 c 1
614 1373 m 3
 433 1373 349 1245 349 1028 c 3
 349 863 445 699 618 699 c 3
 702 699 817 743 855 805 c 1
 865 861 867 930 867 980 c 3
 867 1179 755 1373 614 1373 c 3
EndSplineSet
EndChar

StartChar: notequal
Encoding: 8800 8800 339
Width: 965
VWidth: 0
Flags: HW
LayerCount: 3
Back
SplineSet
683 966 m 5
 843 970 l 5
 731 807 l 5
 865 807 l 5
 851 679 l 5
 641 679 l 5
 526 516 l 5
 861 516 l 5
 847 388 l 5
 438 388 l 5
 277 161 l 5
 120 157 l 5
 281 388 l 5
 100 388 l 5
 114 516 l 5
 371 516 l 5
 484 679 l 5
 104 679 l 5
 118 807 l 5
 574 807 l 5
 683 966 l 5
EndSplineSet
Fore
SplineSet
120 155 m 17
 326 450 l 1
 360 480 l 1
 558 745 l 1
 556 780 l 1
 685 965 l 9
 845 968 l 17
 714 780 l 1
 675 745 l 1
 466 465 l 1
 469 430 l 1
 280 160 l 9
 120 155 l 17
114 516 m 1
 861 516 l 1
 847 388 l 1
 100 388 l 1
 114 516 l 1
118 807 m 1
 865 807 l 1
 851 679 l 1
 104 679 l 1
 118 807 l 1
EndSplineSet
EndChar

StartChar: numbersign
Encoding: 35 35 341
Width: 1142
VWidth: 0
Flags: HW
LayerCount: 3
Fore
SplineSet
408 442 m 1
 377 217 l 1
 249 207 l 1
 281 442 l 1
 76 442 l 1
 106 564 l 1
 303 564 l 1
 341 821 l 1
 145 821 l 1
 173 944 l 1
 361 944 l 1
 398 1157 l 1
 522 1169 l 1
 486 944 l 1
 735 944 l 1
 769 1157 l 1
 893 1167 l 1
 859 944 l 1
 1064 944 l 1
 1036 821 l 1
 839 821 l 1
 801 564 l 1
 996 564 l 1
 968 442 l 1
 779 442 l 1
 751 217 l 1
 622 207 l 1
 655 442 l 1
 408 442 l 1
428 564 m 1
 675 564 l 1
 715 821 l 1
 466 821 l 1
 428 564 l 1
EndSplineSet
EndChar

StartChar: nun-hb
Encoding: 1504 1504 342
Width: 562
VWidth: 0
Flags: HW
LayerCount: 3
Fore
SplineSet
329 741 m 2
 335 805 281 839 233 851 c 2
 124 881 l 1
 100 910 l 1
 124 1155 l 1
 195 1161 l 1
 233 1060 l 1
 315 1034 l 2
 379 1014 422 980 414 813 c 2
 402 582 l 2
 394 433 442 265 442 161 c 0
 442 91 440 58 406 0 c 1
 92 0 l 1
 60 36 l 1
 100 197 l 1
 217 197 l 2
 259 197 305 225 305 287 c 2
 305 486 l 2
 305 528 307 552 313 592 c 2
 329 741 l 2
281 532 m 0
40 0 m 0
281 1064 m 0
40 1064 m 0
281 0 m 0
EndSplineSet
EndChar

StartChar: nun-hb.fina
Encoding: 1503 1503 343
Width: 562
VWidth: 0
Flags: HW
LayerCount: 3
Fore
SplineSet
422 -38 m 0
 430 -205 440 -368 452 -464 c 1
 335 -484 l 1
 291 -454 l 1
 305 486 l 2
 305 528 307 552 313 592 c 2
 329 741 l 2
 335 805 281 839 233 851 c 2
 124 881 l 1
 100 910 l 1
 124 1155 l 1
 195 1161 l 1
 233 1060 l 1
 315 1034 l 2
 379 1014 422 980 414 813 c 2
 402 582 l 2
 394 433 412 197 422 -38 c 0
281 532 m 0
40 0 m 0
281 1064 m 0
40 1064 m 0
281 0 m 0
EndSplineSet
EndChar

StartChar: o
Encoding: 111 111 344
Width: 1164
VWidth: 0
Flags: HW
LayerCount: 3
Fore
SplineSet
293 604 m 4
 293 353 379 86 618 86 c 4
 789 86 869 265 869 436 c 4
 869 677 785 970 554 970 c 4
 371 970 293 795 293 604 c 4
1086 536 m 4
 1086 197 859 -32 576 -32 c 4
 255 -32 76 205 76 518 c 4
 76 887 335 1098 606 1098 c 4
 905 1098 1086 871 1086 536 c 4
582 1064 m 4
EndSplineSet
EndChar

StartChar: oe
Encoding: 339 339 356
Width: 1736
VWidth: 0
Flags: HW
LayerCount: 3
Back
SplineSet
293.146 610.385 m 0
 293.146 520.702 303.185 438.381 323.263 363.42 c 128
 343.341 288.459 375.467 224.545 419.64 171.671 c 128
 463.812 118.796 518.023 92.3604 582.274 92.3604 c 128
 646.525 92.3604 700.404 127.165 743.906 196.769 c 128
 787.408 266.372 809.161 348.027 809.161 441.726 c 0
 809.161 505.977 803.471 568.22 792.094 628.455 c 128
 780.718 688.69 762.98 745.58 738.887 799.122 c 128
 714.792 852.663 685.008 895.498 649.537 927.624 c 128
 614.066 959.749 575.58 975.812 534.086 975.812 c 0
 448.42 975.812 386.843 940.675 349.364 870.4 c 128
 311.887 800.126 293.146 713.455 293.146 610.385 c 0
1026.01 534.086 m 0
 1026.01 366.765 977.149 230.231 879.436 124.486 c 128
 781.722 18.7393 673.965 -34.1338 556.173 -34.1338 c 0
 399.561 -34.1338 280.428 17.0664 198.776 119.467 c 128
 117.126 221.866 76.2979 354.051 76.2979 516.016 c 0
 76.2979 692.706 125.49 833.588 223.875 938.667 c 128
 322.259 1043.75 437.71 1096.28 570.228 1096.28 c 128
 702.745 1096.28 811.84 1045.08 897.506 942.683 c 128
 983.173 840.282 1026.01 704.082 1026.01 534.086 c 0
1614.31 550.149 m 1
 1026.01 544.126 l 1
 1031.36 434.365 1063.15 335.644 1121.38 247.969 c 128
 1179.61 160.294 1260.93 116.455 1365.33 116.455 c 0
 1416.2 116.455 1460.71 120.804 1498.86 129.506 c 128
 1537 138.208 1584.86 157.949 1642.42 188.737 c 1
 1666.51 128.502 l 1
 1562.1 20.0781 1428.91 -34.1338 1266.95 -34.1338 c 0
 1142.46 -34.1338 1035.04 15.0586 944.69 113.443 c 128
 854.337 211.827 809.161 348.027 809.161 522.039 c 0
 809.161 694.714 860.694 833.255 963.765 937.663 c 128
 1066.84 1042.07 1181.95 1094.27 1309.11 1094.27 c 0
 1402.81 1094.27 1480.45 1060.81 1542.02 993.883 c 128
 1603.59 926.953 1634.38 831.918 1634.38 708.769 c 0
 1634.38 659.243 1627.69 606.369 1614.31 550.149 c 1
1028.02 642.51 m 1
 1409.51 668.611 l 1
 1414.86 686.012 1417.54 712.784 1417.54 748.926 c 0
 1417.54 900.185 1361.32 975.812 1248.88 975.812 c 0
 1193.99 975.812 1144.8 947.702 1101.3 891.482 c 128
 1057.8 835.263 1033.37 752.271 1028.02 642.51 c 1
EndSplineSet
Fore
SplineSet
293 604 m 0
 293 353 389 92 588 92 c 0
 719 92 809 265 809 436 c 0
 809 677 733 974 526 974 c 0
 343 974 293 795 293 604 c 0
1028 641 m 1
 1410 667 l 1
 1416 687 1418 727 1418 747 c 0
 1418 892 1365 974 1249 974 c 0
 1151 974 1040 878 1028 641 c 1
1309 1092 m 19
 1486 1092 1634 964 1634 707 c 0
 1634 669 1624 590 1614 548 c 1
 1026 542 l 1
 1026 540 1026 538 1026 536 c 0
 1026 532 1026 530 1026 526 c 0
 1040 337 1144 114 1365 114 c 0
 1451 114 1512 123 1638 191 c 1
 1667 126 l 1
 1571 26 1426 -36 1265 -36 c 11
 1106 -36 992 47 908 159 c 1
 800 22 693 -34 546 -34 c 0
 225 -34 76 205 76 518 c 0
 76 887 305 1096 576 1096 c 0
 727 1096 886 995 928 895 c 1
 1004 997 1140 1092 1309 1092 c 19
EndSplineSet
EndChar

StartChar: ogonek
Encoding: 731 731 357
Width: 632
VWidth: 0
Flags: HW
LayerCount: 3
Fore
SplineSet
331 -181 m 0
 331 -257 372 -344 482 -408 c 1
 440 -470 l 1
 265 -452 151 -357 151 -253 c 0
 151 -189 172 -125 319 4 c 1
 406 4 l 1
 334 -114 331 -159 331 -181 c 0
361 20 m 0
EndSplineSet
EndChar

StartChar: one
Encoding: 49 49 363
Width: 1222
VWidth: 0
Flags: HW
HStem: 0 90<173 261 960 1048> 1253 94<197 275>
VStem: 518 211<147 1253>
LayerCount: 3
Fore
SplineSet
727 1440 m 5
 727 139 l 5
 1060 100 l 5
 1048 2 l 5
 165 0 l 5
 173 90 l 5
 518 147 l 5
 518 1253 l 5
 189 1253 l 5
 197 1347 l 5
 695 1440 l 5
 727 1440 l 5
EndSplineSet
EndChar

StartChar: onehalf
Encoding: 189 189 364
Width: 1273
VWidth: 0
Flags: HW
LayerCount: 3
Fore
SplineSet
1145 0 m 1
 766 0 l 1
 763 50 l 1
 881 149 l 2
 960 217 1049 301 1049 399 c 3
 1049 466 1029 522 950 522 c 3
 882 522 843 453 821 398 c 1
 781 413 l 1
 800 495 878 588 979 588 c 3
 1085 588 1138 527 1138 421 c 3
 1138 283 984 181 904 104 c 2
 858 68 l 1
 1092 68 l 1
 1138 152 l 1
 1172 147 l 1
 1145 0 l 1
352 1186 m 1
 352 666 l 1
 485 650 l 1
 480 610 l 1
 127 610 l 1
 130 646 l 1
 268 669 l 1
 268 1111 l 1
 137 1111 l 1
 140 1149 l 1
 339 1186 l 1
 352 1186 l 1
1026 1167 m 1
 1124 1177 l 1
 289 -26 l 1
 187 -36 l 1
 1026 1167 l 1
EndSplineSet
EndChar

StartChar: onequarter
Encoding: 188 188 365
Width: 1270
VWidth: 0
Flags: HW
LayerCount: 3
Fore
SplineSet
946 -6 m 5
 946 174 l 5
 709 174 l 5
 698 210 l 5
 998 581 l 5
 1030 572 l 5
 1027 514 1026 420 1026 332 c 6
 1026 233 l 5
 1150 233 l 5
 1142 172 l 5
 1026 172 l 5
 1026 7 l 5
 946 -6 l 5
944 233 m 5
 944 442 l 5
 780 233 l 5
 944 233 l 5
328 1186 m 5
 328 666 l 5
 461 650 l 5
 456 610 l 5
 103 610 l 5
 106 646 l 5
 244 669 l 5
 244 1111 l 5
 113 1111 l 5
 116 1149 l 5
 315 1186 l 5
 328 1186 l 5
1026 1167 m 5
 1124 1177 l 5
 289 -26 l 5
 187 -36 l 5
 1026 1167 l 5
EndSplineSet
EndChar

StartChar: onesuperior
Encoding: 185 185 366
Width: 269
VWidth: 0
Flags: HW
LayerCount: 3
Fore
SplineSet
163 1568 m 1
 163 1269 l 1
 229 1257 l 1
 225 1227 l 1
 38 1227 l 1
 42 1255 l 1
 102 1271 l 1
 102 1512 l 1
 46 1512 l 1
 48 1540 l 1
 153 1568 l 1
 163 1568 l 1
EndSplineSet
EndChar

StartChar: ordfeminine
Encoding: 170 170 367
Width: 491
VWidth: 0
Flags: HW
LayerCount: 3
Fore
SplineSet
42 420 m 1
 454 420 l 1
 446 349 l 1
 34 349 l 1
 42 420 l 1
281 701 m 1
 161 683 143 650 143 604 c 0
 143 564 163 546 197 546 c 0
 237 546 269 578 281 598 c 1
 281 701 l 1
367 496 m 0
 311 496 291 532 291 562 c 2
 291 568 l 1
 285 568 l 1
 269 534 217 494 153 494 c 0
 103 494 58 522 58 582 c 0
 58 652 106 703 281 735 c 1
 281 767 l 2
 281 833 265 895 201 895 c 0
 155 895 153 861 145 801 c 1
 119 801 78 803 78 851 c 0
 78 903 173 944 241 944 c 0
 327 944 361 895 361 793 c 2
 361 616 l 2
 361 572 370 558 416 552 c 2
 440 548 l 1
 434 506 l 1
 410 502 395 496 367 496 c 0
EndSplineSet
EndChar

StartChar: ordmasculine
Encoding: 186 186 368
Width: 491
VWidth: 0
Flags: HW
LayerCount: 3
Fore
SplineSet
42 420 m 1
 454 420 l 1
 446 349 l 1
 34 349 l 1
 42 420 l 1
135 731 m 0
 135 613 183 536 247 536 c 0
 309 536 341 595 341 699 c 0
 341 809 299 889 229 889 c 0
 169 889 135 837 135 731 c 0
430 715 m 0
 430 580 347 488 235 488 c 0
 106 488 46 583 46 709 c 0
 46 860 141 940 247 940 c 0
 367 940 430 850 430 715 c 0
EndSplineSet
EndChar

StartChar: oslash
Encoding: 248 248 369
Width: 1164
VWidth: 0
Flags: HW
LayerCount: 3
Fore
SplineSet
768 1484 m 1
 929 1494 l 1
 788 1032 l 1
 749 972 l 1
 500 84 l 1
 492 12 l 1
 360 -450 l 1
 203 -460 l 1
 354 60 l 1
 394 114 l 1
 643 1008 l 1
 647 1068 l 1
 768 1484 l 1
293 604 m 0
 293 353 379 86 618 86 c 0
 789 86 869 265 869 436 c 0
 869 677 785 970 554 970 c 0
 371 970 293 795 293 604 c 0
1086 536 m 0
 1086 197 859 -32 576 -32 c 0
 255 -32 76 205 76 518 c 0
 76 887 335 1098 606 1098 c 0
 905 1098 1086 871 1086 536 c 0
EndSplineSet
EndChar

StartChar: p
Encoding: 112 112 374
Width: 1202
VWidth: 0
Flags: HW
LayerCount: 3
Back
SplineSet
190.745 60.2354 m 1
 190.745 1347.26 l 1
 6.02344 1411.51 l 1
 22.0859 1503.88 l 1
 359.404 1529.98 l 1
 389.521 1501.87 l 1
 389.521 1032.03 l 1
 371.451 905.537 l 1
 385.506 905.537 l 1
 481.883 1013.96 596.329 1092.27 732.863 1092.27 c 0
 967.78 1092.27 1124.39 881.443 1124.39 574.243 c 0
 1124.39 188.737 839.278 -28.1094 524.047 -28.1094 c 0
 413.615 -28.1094 289.13 -2.00781 190.745 60.2354 c 1
907.545 495.938 m 0
 907.545 676.644 857.349 933.647 650.541 933.647 c 0
 582.274 933.647 485.898 919.592 389.521 817.192 c 1
 389.521 188.737 l 1
 439.718 138.541 540.109 106.416 646.525 106.416 c 0
 785.066 106.416 907.545 224.879 907.545 495.938 c 0
EndSplineSet
Fore
SplineSet
582 -24 m 19
 546 -24 508 -20 468 -12 c 1
 462 135 l 1
 518 113 551 108 647 108 c 3
 816 108 902 265 902 494 c 3
 902 783 824 934 669 934 c 3
 565 934 474 865 420 809 c 1
 420 -313 l 1
 608 -355 l 1
 594 -454 l 1
 28 -454 l 1
 36 -357 l 1
 221 -311 l 1
 221 879 l 1
 34 934 l 1
 48 1028 l 1
 402 1072 l 1
 428 1050 l 1
 410 893 l 1
 420 893 l 1
 482 979 596 1092 755 1092 c 3
 962 1092 1124 939 1124 568 c 3
 1124 221 895 -24 582 -24 c 19
EndSplineSet
EndChar

StartChar: paragraph
Encoding: 182 182 375
Width: 1684
VWidth: 0
Flags: HW
LayerCount: 3
Fore
SplineSet
1056 1379 m 1
 1028 1373 l 1
 1028 139 l 1
 1054 135 l 1
 1100 147 l 1
 1100 1369 l 1
 1056 1379 l 1
1504 1512 m 1
 1492 1420 l 1
 1285 1373 l 1
 1285 139 l 1
 1506 98 l 1
 1494 0 l 1
 612 0 l 1
 622 90 l 1
 825 147 l 1
 825 590 l 1
 773 586 719 584 667 584 c 0
 350 584 58 671 58 1026 c 0
 58 1315 303 1514 598 1514 c 2
 1504 1512 l 1
825 1401 m 1
 775 1403 709 1403 697 1403 c 0
 436 1403 309 1287 309 1070 c 0
 309 863 424 703 689 703 c 0
 739 703 817 711 817 711 c 1
 825 705 l 1
 825 1401 l 1
EndSplineSet
EndChar

StartChar: parenright
Encoding: 41 41 377
Width: 578
VWidth: 0
Flags: HW
LayerCount: 3
Fore
SplineSet
30 -386 m 1
 84 -298 301 48 301 554 c 0
 301 1070 152 1309 48 1446 c 1
 108 1526 l 1
 188 1458 518 1180 518 542 c 0
 518 -84 176 -398 114 -456 c 1
 30 -386 l 1
EndSplineSet
EndChar

StartChar: partialdiff
Encoding: 8706 8706 378
Width: 1204
VWidth: 0
Flags: HW
LayerCount: 3
Fore
SplineSet
1060 566 m 0
 1060 191 841 -32 580 -32 c 0
 243 -32 100 253 100 548 c 0
 100 907 319 1153 578 1153 c 0
 626 1153 731 1134 767 1042 c 1
 775 1044 l 1
 749 1168 595 1441 426 1584 c 1
 568 1584 l 1
 909 1389 1060 968 1060 566 c 0
317 606 m 1
 321 275 439 86 608 86 c 0
 797 86 849 255 849 516 c 0
 849 801 703 1036 562 1040 c 1
 554 1040 l 2
 383 1040 317 863 317 606 c 1
EndSplineSet
EndChar

StartChar: pe-hb
Encoding: 1508 1508 379
Width: 1017
VWidth: 0
Flags: HW
LayerCount: 3
Fore
SplineSet
151 942 m 2
 247 1203 l 1
 331 1209 l 1
 341 1086 l 1
 825 1026 l 2
 911 1016 950 970 956 787 c 1
 976 331 l 2
 982 196 875 56 811 16 c 1
 108 -16 l 1
 76 10 l 1
 116 181 l 1
 855 215 l 1
 869 247 879 314 873 388 c 2
 851 737 l 2
 847 815 827 825 783 831 c 2
 229 906 l 1
 195 675 397 618 558 602 c 1
 566 522 518 446 468 406 c 1
 87 422 49 665 151 942 c 2
510 532 m 0
40 0 m 0
510 1064 m 0
40 1064 m 0
510 0 m 0
EndSplineSet
EndChar

StartChar: pe-hb.fina
Encoding: 1507 1507 380
Width: 1017
VWidth: 0
Flags: HW
LayerCount: 3
Fore
SplineSet
819 741 m 2
 819 803 797 827 743 835 c 2
 269 906 l 1
 235 675 437 618 598 602 c 1
 606 522 558 446 508 406 c 1
 127 422 89 665 191 942 c 2
 287 1203 l 1
 371 1209 l 1
 381 1086 l 1
 785 1030 l 2
 885 1016 898 994 908 809 c 2
 952 -20 l 2
 956 -108 960 -350 972 -446 c 1
 855 -466 l 1
 811 -436 l 1
 819 741 l 2
510 532 m 0
40 0 m 0
510 1064 m 0
40 1064 m 0
510 0 m 0
EndSplineSet
EndChar

StartChar: percent
Encoding: 37 37 381
Width: 1389
VWidth: 0
Flags: HW
LayerCount: 3
Fore
SplineSet
910 257 m 0
 910 145 956 56 1046 56 c 0
 1148 56 1177 143 1177 259 c 0
 1177 373 1136 464 1044 464 c 0
 940 464 910 365 910 257 c 0
1329 257 m 0
 1329 96 1189 -42 1046 -42 c 0
 891 -42 757 78 757 259 c 0
 757 420 895 562 1044 562 c 0
 1217 562 1329 428 1329 257 c 0
211 877 m 0
 211 765 257 679 347 679 c 0
 449 679 478 765 478 879 c 0
 478 993 437 1084 345 1084 c 0
 241 1084 211 985 211 877 c 0
630 879 m 0
 630 716 490 578 347 578 c 0
 192 578 60 698 60 881 c 0
 60 1042 196 1183 345 1183 c 0
 518 1183 630 1050 630 879 c 0
1024 1187 m 1
 1161 1177 l 1
 363 -46 l 1
 217 -34 l 1
 1024 1187 l 1
EndSplineSet
EndChar

StartChar: period
Encoding: 46 46 382
Width: 491
VWidth: 0
Flags: HW
LayerCount: 3
Fore
SplineSet
245 249 m 0
 325 249 392 188 392 110 c 0
 392 28 325 -38 245 -38 c 0
 165 -38 100 30 100 112 c 0
 100 190 167 249 245 249 c 0
EndSplineSet
EndChar

StartChar: periodcentered
Encoding: 183 183 383
Width: 491
VWidth: 0
Flags: HW
LayerCount: 3
Fore
SplineSet
245 751 m 0
 325 751 392 690 392 612 c 0
 392 530 325 464 245 464 c 0
 165 464 100 532 100 614 c 0
 100 692 167 751 245 751 c 0
EndSplineSet
EndChar

StartChar: perthousand
Encoding: 8240 8240 384
Width: 2054
VWidth: 0
Flags: HW
LayerCount: 3
Fore
SplineSet
910 257 m 0
 910 145 956 56 1046 56 c 0
 1148 56 1177 143 1177 259 c 0
 1177 373 1136 464 1044 464 c 0
 940 464 910 365 910 257 c 0
1329 257 m 0
 1329 96 1189 -42 1046 -42 c 0
 891 -42 757 78 757 259 c 0
 757 420 895 562 1044 562 c 0
 1217 562 1329 428 1329 257 c 0
211 877 m 0
 211 765 257 679 347 679 c 0
 449 679 478 765 478 879 c 0
 478 993 437 1084 345 1084 c 0
 241 1084 211 985 211 877 c 0
630 879 m 0
 630 716 490 578 347 578 c 0
 192 578 60 698 60 881 c 0
 60 1042 196 1183 345 1183 c 0
 518 1183 630 1050 630 879 c 0
1024 1187 m 1
 1161 1177 l 1
 363 -46 l 1
 217 -34 l 1
 1024 1187 l 1
1574 257 m 0
 1574 145 1621 56 1711 56 c 0
 1813 56 1841 143 1841 259 c 0
 1841 373 1801 464 1709 464 c 0
 1605 464 1574 365 1574 257 c 0
1994 257 m 0
 1994 96 1854 -42 1711 -42 c 0
 1556 -42 1422 78 1422 259 c 0
 1422 420 1560 562 1709 562 c 0
 1882 562 1994 428 1994 257 c 0
EndSplineSet
EndChar

StartChar: plus
Encoding: 43 43 385
Width: 869
VWidth: 0
Flags: HW
LayerCount: 3
Fore
SplineSet
502 498 m 1
 504 211 l 1
 369 225 l 1
 369 498 l 1
 100 498 l 1
 114 620 l 1
 369 620 l 1
 369 902 l 1
 500 887 l 1
 502 620 l 1
 769 620 l 1
 755 498 l 1
 502 498 l 1
EndSplineSet
EndChar

StartChar: product
Encoding: 8719 8719 387
Width: 1722
VWidth: 0
Flags: HW
LayerCount: 3
Fore
SplineSet
697 0 m 1
 38 0 l 1
 48 90 l 1
 251 147 l 1
 251 1369 l 1
 30 1420 l 1
 42 1512 l 1
 1705 1512 l 1
 1691 1420 l 1
 1488 1373 l 1
 1488 139 l 1
 1709 98 l 1
 1697 0 l 1
 1036 0 l 1
 1050 90 l 1
 1251 147 l 1
 1251 1387 l 5
 488 1385 l 5
 488 139 l 1
 713 98 l 1
 697 0 l 1
EndSplineSet
EndChar

StartChar: q
Encoding: 113 113 388
Width: 1186
VWidth: 0
Flags: HW
LayerCount: 3
Back
SplineSet
793.098 158.619 m 1
 781.051 158.619 l 1
 712.784 64.251 612.393 -26.1016 443.733 -26.1016 c 0
 228.895 -26.1016 48.1885 150.588 48.1885 485.898 c 0
 48.1885 839.278 329.286 1096.28 580.267 1096.28 c 0
 660.58 1096.28 748.926 1070.18 789.082 1040.06 c 1
 799.122 1040.06 l 1
 783.059 1196.67 l 1
 783.059 1351.28 l 1
 598.337 1417.54 l 1
 614.4 1507.89 l 1
 951.718 1538.01 l 1
 979.827 1507.89 l 1
 979.827 261.02 l 2
 979.827 132.518 1032.03 126.494 1112.35 108.424 c 2
 1166.56 96.377 l 1
 1152.5 -6.02344 l 1
 1080.22 -24.0938 1050.1 -28.1094 973.804 -28.1094 c 0
 851.325 -28.1094 793.098 48.1885 793.098 150.588 c 2
 793.098 158.619 l 1
781.051 238.934 m 1
 781.051 809.161 l 1
 716.8 915.576 604.361 975.812 522.039 975.812 c 0
 331.294 975.812 263.027 795.105 263.027 562.196 c 0
 263.027 273.066 379.482 128.502 532.078 128.502 c 0
 634.479 128.502 738.887 188.737 781.051 238.934 c 1
570.228 532.078 m 0
EndSplineSet
Fore
SplineSet
751 88 m 17
 675 16 542 -26 458 -26 c 0
 243 -26 60 141 60 502 c 0
 60 833 341 1096 596 1096 c 0
 676 1096 771 1058 807 1038 c 1
 948 1084 l 1
 984 1082 l 1
 984 -305 l 1
 1179 -347 l 1
 1165 -446 l 1
 586 -446 l 1
 598 -349 l 1
 781 -305 l 1
 781 807 l 1
 739 881 658 974 536 974 c 0
 387 974 273 823 273 576 c 0
 273 287 385 126 538 126 c 0
 574 126 687 145 747 181 c 1
 751 88 l 17
EndSplineSet
Layer: 2
SplineSet
983.843 1082.23 m 5
 983.843 -305.192 l 5
 1178.6 -347.356 l 5
 1164.55 -445.741 l 5
 586.29 -445.741 l 5
 598.337 -349.364 l 5
 781.051 -305.192 l 5
 781.051 14.0547 l 5
 793.098 138.541 l 5
 781.051 137.117 l 5
 694.714 20.0781 574.243 -26.1016 457.788 -26.1016 c 4
 242.949 -26.1016 56.2197 140.549 56.2197 501.961 c 4
 56.2197 833.255 341.333 1096.28 596.329 1096.28 c 4
 677.854 1096.28 775.027 1056.13 801.13 1028.02 c 5
 947.702 1083 l 5
 983.843 1082.23 l 5
781.051 219.983 m 5
 781.051 807.153 l 5
 738.887 881.443 658.572 973.804 536.094 973.804 c 4
 387.514 973.804 269.051 823.216 269.051 576.251 c 4
 269.051 287.121 385.506 126.494 538.102 126.494 c 4
 595.103 126.494 717.527 144.9 781.051 219.983 c 5
EndSplineSet
EndChar

StartChar: qof-hb
Encoding: 1511 1511 389
Width: 1007
VWidth: 0
Flags: HW
LayerCount: 3
Fore
SplineSet
739 165 m 2
 649 14 l 1
 456 38 l 1
 432 70 l 1
 542 185 l 2
 699 348 859 478 859 687 c 0
 859 779 816 877 643 877 c 2
 143 875 l 1
 112 920 l 1
 131 1191 l 1
 219 1203 l 1
 271 1074 l 1
 665 1074 l 2
 912 1074 996 956 996 771 c 0
 996 598 922 468 739 165 c 2
171 -434 m 1
 191 691 l 1
 269 701 l 1
 303 -18 l 2
 307 -106 319 -348 331 -444 c 1
 215 -464 l 1
 171 -434 l 1
504 532 m 0
40 0 m 0
504 1064 m 0
40 1064 m 0
504 0 m 0
EndSplineSet
EndChar

StartChar: question
Encoding: 63 63 390
Width: 730
VWidth: 0
Flags: HW
LayerCount: 3
Fore
SplineSet
34 1401 m 0
 34 1465 82 1566 273 1566 c 0
 462 1566 691 1355 691 1046 c 0
 691 757 341 799 341 618 c 0
 341 570 349 526 367 466 c 1
 277 446 l 1
 245 494 183 613 183 711 c 0
 183 984 556 893 556 1142 c 0
 556 1254 429 1353 357 1353 c 0
 265 1353 176 1323 124 1267 c 1
 84 1283 34 1335 34 1401 c 0
472 110 m 0
 472 24 403 -44 319 -44 c 0
 235 -44 169 26 169 112 c 0
 169 194 239 255 319 255 c 0
 401 255 472 192 472 110 c 0
EndSplineSet
EndChar

StartChar: quotedbl
Encoding: 34 34 392
Width: 676
VWidth: 0
Flags: HW
LayerCount: 3
Fore
SplineSet
353 1584 m 1
 576 1564 l 1
 532 1098 l 1
 418 1084 l 1
 353 1584 l 1
100 1584 m 1
 323 1564 l 1
 279 1098 l 1
 165 1084 l 1
 100 1584 l 1
EndSplineSet
EndChar

StartChar: quotereversed
Encoding: 8219 8219 397
Width: 451
VWidth: 0
Flags: HW
LayerCount: 3
Fore
SplineSet
414 1006 m 1
 386 922 l 1
 67 1006 26 1201 26 1315 c 0
 26 1498 155 1568 239 1568 c 0
 301 1568 388 1518 388 1424 c 0
 388 1402 381 1377 369 1349 c 1
 267 1341 193 1295 193 1217 c 0
 193 1139 255 1048 414 1006 c 1
EndSplineSet
EndChar

StartChar: quotesingle
Encoding: 39 39 400
Width: 463
VWidth: 0
Flags: HW
LayerCount: 3
Fore
SplineSet
120 1584 m 5
 343 1564 l 5
 299 1098 l 5
 185 1084 l 5
 120 1584 l 5
EndSplineSet
EndChar

StartChar: r
Encoding: 114 114 401
Width: 873
VWidth: 0
Flags: HW
LayerCount: 3
Fore
SplineSet
775 819 m 5
 733 855 685 879 641 879 c 4
 577 879 472 797 446 614 c 5
 446 147 l 5
 727 106 l 5
 715 0 l 5
 44 0 l 5
 58 90 l 5
 243 139 l 5
 243 885 l 5
 46 944 l 5
 62 1036 l 5
 410 1082 l 5
 434 1054 l 5
 414 773 l 5
 438 773 l 5
 502 994 621 1102 723 1102 c 4
 813 1102 869 1036 869 964 c 4
 869 912 839 863 775 819 c 5
438 0 m 4
504 1064 m 4
EndSplineSet
EndChar

StartChar: radical
Encoding: 8730 8730 403
Width: 1276
VWidth: 0
Flags: HW
LayerCount: 3
Fore
SplineSet
476 -161 m 1
 227 502 l 1
 80 536 l 1
 92 628 l 1
 410 647 l 1
 588 108 l 1
 1132 1576 l 1
 1277 1584 l 1
 630 -139 l 1
 476 -161 l 1
EndSplineSet
EndChar

StartChar: registered
Encoding: 174 174 406
Width: 570
VWidth: 0
Flags: HW
LayerCount: 3
Fore
SplineSet
560 1301 m 0
 560 1130 446 1018 275 1018 c 0
 116 1018 10 1130 10 1299 c 0
 10 1474 118 1590 281 1590 c 0
 448 1590 560 1474 560 1301 c 0
281 1552 m 0
 146 1552 58 1454 58 1307 c 0
 58 1158 146 1058 279 1058 c 0
 418 1058 514 1152 514 1295 c 0
 514 1450 418 1552 281 1552 c 0
285 1319 m 2
 313 1319 327 1347 327 1383 c 0
 327 1421 299 1442 261 1442 c 0
 253 1442 243 1440 243 1440 c 1
 243 1319 l 1
 285 1319 l 2
388 1393 m 0
 388 1363 367 1333 321 1313 c 1
 369 1247 l 2
 391 1215 410 1195 440 1183 c 1
 448 1181 l 1
 442 1159 l 1
 430 1155 422 1155 412 1155 c 0
 374 1155 343 1183 321 1221 c 2
 281 1289 l 1
 243 1289 l 1
 243 1193 l 1
 285 1181 l 1
 283 1159 l 1
 143 1159 l 1
 145 1181 l 1
 189 1191 l 1
 189 1432 l 1
 145 1440 l 1
 147 1462 l 1
 187 1466 227 1470 255 1470 c 0
 349 1470 388 1443 388 1393 c 0
EndSplineSet
EndChar

StartChar: resh-hb
Encoding: 1512 1512 407
Width: 1015
VWidth: 0
Flags: HW
LayerCount: 3
Fore
SplineSet
799 10 m 1
 823 781 l 2
 825 859 799 875 755 875 c 2
 106 873 l 1
 76 918 l 1
 94 1187 l 1
 183 1199 l 1
 235 1070 l 1
 797 1070 l 2
 883 1070 924 1014 928 831 c 2
 940 325 l 2
 942 237 948 96 960 0 c 1
 843 -20 l 1
 799 10 l 1
508 532 m 0
40 0 m 0
508 1064 m 0
40 1064 m 0
508 0 m 0
EndSplineSet
EndChar

StartChar: ring
Encoding: 730 730 408
Width: 668
VWidth: 0
Flags: HW
LayerCount: 3
Fore
SplineSet
335 2008 m 0
 263 2008 231 1939 231 1871 c 0
 231 1797 269 1715 347 1715 c 0
 413 1715 452 1765 452 1853 c 0
 452 1929 411 2008 335 2008 c 0
349 2066 m 0
 465 2066 538 1983 538 1869 c 0
 538 1759 457 1656 333 1656 c 0
 221 1656 145 1733 145 1857 c 0
 145 1969 235 2066 349 2066 c 0
337 1506 m 0
EndSplineSet
EndChar

StartChar: s
Encoding: 115 115 409
Width: 839
VWidth: 0
Flags: HW
LayerCount: 3
Back
SplineSet
576 715 m 5
 566 767 l 6
 532 948 458 992 386 992 c 4
 300 992 249 921 249 843 c 4
 249 628 783 596 783 263 c 4
 783 82 595 -42 408 -42 c 4
 191 -42 56 61 56 171 c 4
 56 253 117 323 217 331 c 5
 269 160 354 78 446 78 c 4
 532 78 606 107 606 197 c 4
 606 372 84 418 84 755 c 4
 84 896 203 1096 448 1096 c 7
 607 1096 745 1028 745 893 c 7
 745 793 682 723 576 715 c 5
464 0 m 4
420 1064 m 4
EndSplineSet
Fore
SplineSet
576 715 m 1
 566 767 l 2
 532 948 458 992 386 992 c 0
 300 992 249 925 249 847 c 0
 249 619 783 592 783 267 c 0
 783 86 595 -42 408 -42 c 0
 191 -42 56 61 56 171 c 0
 56 253 117 323 217 331 c 1
 269 160 354 78 446 78 c 0
 532 78 606 111 606 201 c 0
 606 394 84 430 84 759 c 0
 84 900 203 1096 448 1096 c 3
 607 1096 745 1028 745 893 c 3
 745 793 682 723 576 715 c 1
464 0 m 0
420 1064 m 0
EndSplineSet
EndChar

StartChar: samekh-hb
Encoding: 1505 1505 411
Width: 1015
VWidth: 0
Flags: HW
LayerCount: 3
Fore
SplineSet
476 197 m 1
 638 197 l 1
 791 241 906 317 906 570 c 0
 906 811 831 875 594 875 c 2
 311 875 l 1
 261 815 249 686 249 582 c 0
 249 397 386 229 476 197 c 1
404 0 m 1
 245 84 141 285 141 506 c 0
 141 667 177 791 229 855 c 1
 229 871 l 1
 153 871 l 1
 131 893 l 1
 143 1187 l 1
 233 1199 l 1
 275 1070 l 1
 671 1070 l 2
 898 1070 1016 895 1016 634 c 0
 1016 361 924 133 671 0 c 1
 404 0 l 1
508 532 m 0
40 0 m 0
508 1064 m 0
40 1064 m 0
508 0 m 0
EndSplineSet
EndChar

StartChar: section
Encoding: 167 167 416
Width: 893
VWidth: 0
Flags: HW
LayerCount: 3
Fore
SplineSet
100 962 m 1
 554 693 l 2
 695 611 839 514 839 349 c 0
 839 122 621 -20 396 -20 c 0
 255 -20 140 34 62 124 c 1
 76 388 l 1
 167 375 l 1
 213 187 l 1
 259 123 334 76 410 76 c 0
 512 76 657 122 657 287 c 0
 657 496 98 541 98 908 c 0
 98 922 98 952 100 962 c 1
833 572 m 1
 442 797 l 1
 285 889 100 984 100 1195 c 0
 100 1424 283 1526 474 1526 c 0
 558 1526 671 1504 759 1424 c 1
 759 1416 743 1146 743 1146 c 1
 659 1163 l 1
 612 1353 l 1
 604 1375 530 1442 446 1442 c 0
 348 1442 279 1391 279 1265 c 0
 279 986 841 963 841 634 c 0
 841 608 839 594 833 572 c 1
EndSplineSet
EndChar

StartChar: seven
Encoding: 55 55 418
Width: 1222
VWidth: 0
Flags: HW
HStem: 1086 42G<163 261> 1253 185<309 934>
LayerCount: 3
Back
SplineSet
413.615 674.636 m 5
 349.364 624.439 281.098 497.945 281.098 369.443 c 4
 281.098 224.879 377.475 80.3135 505.977 80.3135 c 4
 642.51 80.3135 734.871 160.628 734.871 323.263 c 4
 734.871 453.772 590.306 564.204 413.615 674.636 c 5
80.3135 341.333 m 4
 80.3135 477.867 168.659 606.369 343.341 716.8 c 5
 343.341 726.839 l 5
 252.988 781.051 134.525 915.576 134.525 1078.21 c 4
 134.525 1283.01 307.2 1459.7 520.031 1459.7 c 4
 728.847 1459.7 863.373 1329.19 863.373 1146.48 c 4
 863.373 1003.92 803.138 889.475 662.588 785.066 c 5
 660.58 773.02 l 5
 839.278 660.58 927.624 524.047 927.624 375.467 c 4
 927.624 152.596 730.854 -32.126 451.765 -32.126 c 4
 228.895 -32.126 80.3135 108.424 80.3135 341.333 c 4
580.267 823.216 m 5
 630.463 877.428 684.675 947.702 684.675 1102.31 c 4
 684.675 1232.82 616.408 1367.34 487.906 1367.34 c 4
 391.529 1367.34 317.239 1287.03 317.239 1188.64 c 4
 317.239 1056.13 409.6 921.6 580.267 823.216 c 5
EndSplineSet
Fore
SplineSet
934 1253 m 17
 309 1253 l 1
 247 1086 l 1
 163 1102 l 1
 193 1438 l 1
 1132 1438 l 1
 1132 1373 l 1
 610 -40 l 25
 496 -4 l 25
 934 1253 l 17
EndSplineSet
EndChar

StartChar: shin-hb
Encoding: 1513 1513 419
Width: 1116
VWidth: 0
Flags: HW
LayerCount: 3
Fore
SplineSet
500 1185 m 1
 275 163 l 1
 353 163 l 1
 534 879 l 1
 691 829 l 1
 705 831 l 1
 741 1002 l 1
 719 1044 l 1
 622 1082 l 1
 582 1191 l 1
 500 1185 l 1
1000 761 m 0
 1000 807 970 837 920 855 c 2
 811 893 l 1
 789 922 l 1
 821 1177 l 1
 893 1189 l 1
 936 1078 l 1
 980 1058 l 2
 1052 1024 1092 988 1092 902 c 0
 1092 633 883 193 793 30 c 1
 201 -12 l 1
 181 6 175 16 169 24 c 1
 169 24 116 339 116 544 c 0
 116 668 151 791 211 847 c 1
 211 875 l 1
 291 849 l 1
 241 799 213 734 213 622 c 0
 213 518 259 301 297 185 c 1
 747 221 l 1
 851 309 1000 669 1000 761 c 0
335 819 m 1
 239 855 l 1
 233 851 l 1
 108 900 l 1
 76 936 l 1
 112 1187 l 1
 193 1193 l 1
 233 1088 l 1
 359 1036 l 1
 390 998 l 1
 345 823 l 1
 335 819 l 1
1076 1064 m 0
40 0 m 0
558 1064 m 0
558 532 m 0
40 1064 m 0
558 0 m 0
EndSplineSet
EndChar

StartChar: six
Encoding: 54 54 420
Width: 1222
VWidth: 0
Flags: HW
HStem: -26 100<506 771> 737 124<502 741> 1405 70<867 889>
VStem: 141 227<261 699> 871 221<245 590>
LayerCount: 3
Back
SplineSet
413.615 674.636 m 5
 349.364 624.439 281.098 497.945 281.098 369.443 c 4
 281.098 224.879 377.475 80.3135 505.977 80.3135 c 4
 642.51 80.3135 734.871 160.628 734.871 323.263 c 4
 734.871 453.772 590.306 564.204 413.615 674.636 c 5
80.3135 341.333 m 4
 80.3135 477.867 168.659 606.369 343.341 716.8 c 5
 343.341 726.839 l 5
 252.988 781.051 134.525 915.576 134.525 1078.21 c 4
 134.525 1283.01 307.2 1459.7 520.031 1459.7 c 4
 728.847 1459.7 863.373 1329.19 863.373 1146.48 c 4
 863.373 1003.92 803.138 889.475 662.588 785.066 c 5
 660.58 773.02 l 5
 839.278 660.58 927.624 524.047 927.624 375.467 c 4
 927.624 152.596 730.854 -32.126 451.765 -32.126 c 4
 228.895 -32.126 80.3135 108.424 80.3135 341.333 c 4
580.267 823.216 m 5
 630.463 877.428 684.675 947.702 684.675 1102.31 c 4
 684.675 1232.82 616.408 1367.34 487.906 1367.34 c 4
 391.529 1367.34 317.239 1287.03 317.239 1188.64 c 4
 317.239 1056.13 409.6 921.6 580.267 823.216 c 5
EndSplineSet
Fore
SplineSet
381 741 m 1
 394 741 l 1
 448 803 568 861 699 861 c 3
 936 861 1092 651 1092 430 c 3
 1092 181 869 -26 606 -26 c 3
 275 -26 141 227 141 512 c 3
 141 920 496 1352 879 1476 c 1
 924 1405 l 1
 607 1260 429 982 381 741 c 1
614 74 m 3
 811 74 871 211 871 398 c 3
 871 563 783 737 610 737 c 3
 520 737 407 685 377 641 c 1
 373 601 369 536 369 494 c 3
 369 287 465 74 614 74 c 3
EndSplineSet
EndChar

StartChar: slash
Encoding: 47 47 421
Width: 666
VWidth: 0
Flags: HW
LayerCount: 3
Fore
SplineSet
534 1502 m 5
 695 1512 l 5
 129 -432 l 5
 -28 -442 l 5
 534 1502 l 5
EndSplineSet
EndChar

StartChar: smallOE
Encoding: 630 630 422
Width: 1762
VWidth: 0
Flags: HW
LayerCount: 3
Fore
SplineSet
293 604 m 0
 293 353 379 86 618 86 c 0
 789 86 869 265 869 436 c 0
 869 677 785 970 554 970 c 0
 371 970 293 795 293 604 c 0
1087 637 m 1
 1469 663 l 1
 1475 683 1477 727 1477 747 c 0
 1477 892 1424 974 1308 974 c 0
 1210 974 1099 874 1087 637 c 1
1673 548 m 1
 1085 542 l 1
 1095 351 1197 124 1424 124 c 0
 1510 124 1574 123 1700 191 c 1
 1726 126 l 1
 1630 26 1487 -36 1326 -36 c 0
 1190 -36 1055 30 967 160 c 1
 874 39 733 -32 576 -32 c 0
 255 -32 76 205 76 518 c 0
 76 887 335 1098 606 1098 c 0
 777 1098 909 1024 991 898 c 1
 1090 1024 1234 1092 1368 1092 c 0
 1545 1092 1694 964 1694 707 c 0
 1694 669 1683 590 1673 548 c 1
EndSplineSet
EndChar

StartChar: softhyphen
Encoding: 173 173 423
Width: 692
VWidth: 0
Flags: HW
LayerCount: 3
Fore
SplineSet
106 634 m 1
 602 707 l 1
 592 566 l 1
 96 494 l 1
 106 634 l 1
EndSplineSet
EndChar

StartChar: sterling
Encoding: 163 163 425
Width: 1295
VWidth: 0
Flags: HW
LayerCount: 3
Fore
SplineSet
1096 1472 m 1
 1058 1088 l 1
 954 1104 l 1
 904 1363 l 1
 878 1377 845 1391 801 1391 c 0
 598 1391 558 1261 550 855 c 1
 550 797 l 1
 817 813 l 1
 803 691 l 1
 548 675 l 1
 546 626 l 1
 542 433 530 238 472 120 c 1
 1032 116 l 1
 1191 424 l 1
 1295 402 l 1
 1249 0 l 1
 46 0 l 1
 56 90 l 1
 259 147 l 1
 297 269 303 379 307 560 c 2
 309 667 l 1
 92 655 l 1
 106 777 l 1
 313 789 l 1
 317 956 l 1
 329 1348 538 1520 813 1520 c 0
 911 1520 1000 1512 1096 1472 c 1
EndSplineSet
EndChar

StartChar: summation
Encoding: 8721 8721 426
Width: 1307
VWidth: 0
Flags: HW
LayerCount: 3
Fore
SplineSet
50 1512 m 1
 1253 1512 l 1
 1215 1124 l 1
 1110 1140 l 1
 1060 1401 l 1
 325 1401 l 1
 831 827 l 1
 827 771 l 1
 311 197 l 1
 1070 197 l 1
 1189 476 l 1
 1289 462 l 1
 1253 0 l 1
 48 0 l 1
 48 90 l 1
 630 737 l 1
 630 751 l 1
 36 1440 l 1
 50 1512 l 1
EndSplineSet
EndChar

StartChar: t
Encoding: 116 116 427
Width: 771
VWidth: 0
Flags: HW
LayerCount: 3
Fore
SplineSet
333 1323 m 1
 398 1323 l 1
 398 1056 l 1
 741 1056 l 1
 731 950 l 1
 396 950 l 1
 392 396 l 1
 392 388 l 2
 392 205 446 149 570 149 c 0
 660 149 745 217 745 217 c 1
 771 151 l 1
 697 43 581 -28 442 -28 c 0
 293 -28 183 44 183 315 c 2
 183 353 l 1
 187 952 l 1
 32 952 l 1
 32 1018 l 1
 132 1096 247 1215 333 1323 c 1
446 0 m 0
390 532 m 0
EndSplineSet
EndChar

StartChar: tav-hb
Encoding: 1514 1514 428
Width: 1015
VWidth: 0
Flags: HW
LayerCount: 3
Fore
SplineSet
147 133 m 1
 179 217 108 414 108 538 c 0
 108 656 129 759 193 863 c 1
 193 889 l 1
 281 891 l 1
 251 853 207 718 207 630 c 0
 207 471 359 322 359 137 c 0
 359 85 343 56 321 2 c 1
 72 0 l 1
 50 86 l 1
 147 133 l 1
823 20 m 1
 823 781 l 2
 823 859 799 875 755 875 c 2
 106 873 l 1
 76 918 l 1
 94 1187 l 1
 183 1199 l 1
 235 1070 l 1
 797 1070 l 2
 883 1070 918 1014 928 831 c 2
 956 353 l 2
 962 249 974 66 978 10 c 1
 865 -10 l 1
 823 20 l 1
508 532 m 0
40 0 m 0
508 1064 m 0
40 1064 m 0
508 0 m 0
EndSplineSet
EndChar

StartChar: tcaron
Encoding: 357 357 429
Width: 1198
VWidth: 0
Flags: HW
LayerCount: 3
Fore
SplineSet
781 996 m 1
 940 1038 1002 1129 1002 1207 c 0
 1002 1275 947 1337 861 1337 c 0
 849 1337 837 1337 825 1335 c 1
 815 1361 807 1384 807 1412 c 0
 807 1510 894 1558 956 1558 c 0
 1040 1558 1169 1488 1169 1305 c 0
 1169 1191 1128 996 809 912 c 1
 781 996 l 1
EndSplineSet
Refer: 427 116 N 1 0 0 1 0 0 2
EndChar

StartChar: tet-hb
Encoding: 1496 1496 434
Width: 1011
VWidth: 0
Flags: HW
LayerCount: 3
Fore
SplineSet
390 791 m 1
 239 855 l 1
 233 851 l 1
 108 900 l 1
 76 936 l 1
 112 1187 l 1
 193 1193 l 1
 233 1088 l 1
 414 1008 l 1
 430 970 l 1
 402 795 l 1
 390 791 l 1
659 875 m 1
 587 835 552 642 542 562 c 1
 456 552 l 1
 546 1106 l 1
 560 1112 576 1116 594 1116 c 0
 815 1116 1002 948 1002 727 c 0
 1002 436 883 165 813 6 c 1
 201 -20 l 1
 169 16 l 1
 169 16 116 337 116 544 c 0
 116 668 151 791 211 847 c 1
 211 875 l 1
 291 849 l 1
 241 799 213 734 213 622 c 0
 213 518 259 293 297 177 c 1
 725 197 l 1
 795 251 904 449 904 638 c 0
 904 771 775 875 659 875 c 1
506 532 m 0
40 0 m 0
506 1064 m 0
40 1064 m 0
506 0 m 0
EndSplineSet
EndChar

StartChar: thorn
Encoding: 254 254 435
Width: 1222
VWidth: 0
Flags: HW
LayerCount: 3
Fore
SplineSet
217 1359 m 1
 32 1424 l 1
 48 1516 l 1
 392 1542 l 1
 422 1514 l 1
 422 1032 l 1
 404 906 l 1
 418 906 l 1
 490 986 584 1090 745 1090 c 0
 952 1090 1118 901 1118 570 c 0
 1118 231 897 -16 614 -16 c 0
 574 -16 532 -12 492 2 c 1
 488 124 l 1
 524 116 560 112 594 112 c 0
 849 112 889 317 889 496 c 0
 889 785 812 932 659 932 c 0
 555 932 472 877 418 821 c 1
 418 -305 l 1
 606 -347 l 1
 592 -446 l 1
 24 -446 l 1
 34 -349 l 1
 219 -305 l 1
 217 1359 l 1
EndSplineSet
EndChar

StartChar: three
Encoding: 51 51 436
Width: 1222
VWidth: 0
Flags: HW
HStem: -36 106<400 687> 1313 161<434 675>
VStem: 203 90<1157 1211> 747 217<996 1241> 803 217<249 502>
LayerCount: 3
Fore
SplineSet
285 259 m 5xe8
 293 207 398 70 514 70 c 7
 757 70 803 232 803 361 c 7xe8
 803 502 661 673 434 673 c 6
 414 673 l 5
 402 753 l 5
 450 769 747 881 747 1102 c 7
 747 1208 693 1313 536 1313 c 7
 405 1313 339 1238 293 1128 c 5
 203 1161 l 5
 227 1290 395 1474 612 1474 c 7
 797 1474 964 1346 964 1169 c 7xf0
 964 972 824 853 677 799 c 5
 677 785 l 5
 894 755 1020 591 1020 434 c 7
 1020 169 771 -36 450 -36 c 7
 239 -36 131 53 131 133 c 7
 131 193 185 249 285 259 c 5xe8
EndSplineSet
EndChar

StartChar: threequarters
Encoding: 190 190 437
Width: 1270
VWidth: 0
Flags: HW
LayerCount: 3
Fore
SplineSet
169 710 m 1xe8
 172 689 215 635 261 635 c 3
 358 635 377 699 377 751 c 3xe8
 377 807 320 876 229 876 c 2
 221 876 l 1
 216 908 l 1
 235 914 354 960 354 1048 c 3
 354 1090 333 1132 270 1132 c 3
 218 1132 191 1102 173 1058 c 1
 137 1071 l 1
 147 1123 213 1196 300 1196 c 3
 374 1196 441 1145 441 1074 c 3xf0
 441 995 385 948 326 926 c 1
 326 921 l 1
 413 909 463 843 463 780 c 3
 463 674 363 592 235 592 c 3
 151 592 108 628 108 660 c 3
 108 684 129 706 169 710 c 1xe8
946 -6 m 1
 946 174 l 1
 709 174 l 1
 698 210 l 1
 998 581 l 1
 1030 572 l 1
 1027 514 1026 420 1026 332 c 2
 1026 233 l 1
 1150 233 l 1
 1142 172 l 1
 1026 172 l 1
 1026 7 l 1
 946 -6 l 1
944 233 m 1
 944 442 l 1
 780 233 l 1
 944 233 l 1
1026 1167 m 1
 1124 1177 l 1
 289 -26 l 1
 187 -36 l 1
 1026 1167 l 1
EndSplineSet
EndChar

StartChar: threesuperior
Encoding: 179 179 438
Width: 730
VWidth: 0
Flags: HW
LayerCount: 3
Fore
SplineSet
201 1480 m 0
 201 1512 181 1542 147 1542 c 0
 125 1542 100 1520 100 1458 c 1
 68 1460 50 1470 50 1494 c 0
 50 1550 129 1582 169 1582 c 0
 223 1582 261 1540 261 1496 c 0
 261 1448 231 1401 191 1379 c 1
 191 1373 l 1
 249 1357 281 1311 281 1265 c 0
 281 1203 231 1140 157 1140 c 0
 69 1140 46 1181 46 1209 c 0
 46 1237 80 1249 94 1251 c 1
 100 1213 107 1177 151 1177 c 0
 195 1177 217 1213 217 1255 c 0
 217 1297 185 1343 139 1343 c 0
 127 1343 108 1341 94 1341 c 1
 92 1351 88 1361 88 1373 c 2
 88 1375 l 1
 100 1379 201 1396 201 1480 c 0
EndSplineSet
EndChar

StartChar: tilde
Encoding: 732 732 439
Width: 867
VWidth: 0
Flags: HW
LayerCount: 3
Fore
SplineSet
151 1677 m 1
 151 1677 195 1867 315 1849 c 2
 586 1813 l 2
 618 1807 659 1863 659 1863 c 1
 717 1861 l 1
 717 1861 668 1671 544 1687 c 2
 273 1725 l 2
 237 1729 197 1667 197 1667 c 1
 151 1677 l 1
434 1506 m 0
EndSplineSet
EndChar

StartChar: trademark
Encoding: 8482 8482 440
Width: 965
VWidth: 0
Flags: HW
LayerCount: 3
Fore
SplineSet
0 1602 m 1
 357 1602 l 1
 345 1490 l 1
 309 1494 l 1
 297 1568 l 1
 215 1568 l 1
 215 1247 l 1
 275 1237 l 1
 271 1205 l 1
 78 1205 l 1
 80 1235 l 1
 135 1249 l 1
 135 1568 l 1
 56 1568 l 1
 38 1490 l 1
 4 1494 l 1
 0 1602 l 1
610 1215 m 1
 500 1514 l 1
 480 1247 l 1
 538 1237 l 1
 534 1205 l 1
 373 1205 l 1
 375 1235 l 1
 430 1249 l 1
 454 1560 l 1
 394 1572 l 1
 398 1602 l 1
 548 1602 l 1
 574 1540 l 1
 657 1303 l 1
 757 1552 l 1
 779 1602 l 1
 928 1602 l 1
 924 1572 l 1
 869 1560 l 1
 887 1247 l 1
 946 1237 l 1
 942 1205 l 1
 757 1205 l 1
 761 1235 l 1
 813 1249 l 1
 795 1526 l 1
 673 1221 l 1
 610 1215 l 1
EndSplineSet
EndChar

StartChar: tsadi-hb
Encoding: 1510 1510 441
Width: 1180
VWidth: 0
Flags: HW
LayerCount: 3
Fore
SplineSet
705 488 m 1
 908 807 l 1
 1012 960 972 1028 920 1058 c 2
 811 1120 l 1
 807 1193 l 1
 743 1205 l 1
 641 996 l 1
 651 962 l 1
 817 871 l 2
 829 865 831 839 803 795 c 1
 667 552 l 1
 622 552 l 1
 705 488 l 1
932 20 m 1
 88 -20 l 1
 56 16 l 1
 96 177 l 1
 755 209 l 1
 757 219 l 1
 494 490 l 2
 404 584 381 627 381 735 c 0
 381 851 341 875 289 875 c 2
 106 873 l 1
 76 918 l 1
 94 1187 l 1
 183 1199 l 1
 235 1070 l 1
 311 1070 l 2
 397 1070 458 983 458 895 c 0
 458 762 462 719 538 651 c 2
 887 341 l 1
 949 289 988 237 988 145 c 0
 988 89 952 44 932 20 c 1
590 532 m 0
40 0 m 0
590 1064 m 0
40 1064 m 0
590 0 m 0
EndSplineSet
EndChar

StartChar: tsadi-hb.fina
Encoding: 1509 1509 442
Width: 1180
VWidth: 0
Flags: HW
LayerCount: 3
Fore
SplineSet
422 -38 m 0
 430 -205 440 -368 452 -464 c 1
 335 -484 l 1
 291 -454 l 1
 305 492 l 2
 305 534 307 558 313 598 c 2
 329 747 l 2
 335 811 281 843 233 855 c 2
 124 887 l 1
 100 916 l 1
 124 1161 l 1
 195 1169 l 1
 233 1068 l 1
 315 1040 l 2
 379 1020 422 986 414 819 c 2
 402 588 l 2
 394 439 412 197 422 -38 c 0
402 191 m 1
 426 267 440 317 490 383 c 2
 775 779 l 2
 883 928 839 1000 787 1030 c 2
 679 1092 l 1
 675 1165 l 1
 610 1177 l 1
 508 968 l 1
 518 934 l 1
 685 843 l 2
 697 837 701 809 671 767 c 2
 416 408 l 1
 371 408 l 1
 402 191 l 1
590 532 m 0
40 0 m 0
590 1064 m 0
40 1064 m 0
590 0 m 0
EndSplineSet
EndChar

StartChar: two
Encoding: 50 50 443
Width: 1222
VWidth: 0
Flags: HW
HStem: 0 169<345 912> 1305 165<458 729>
VStem: 153 100<1028 1088> 823 219<853 1201>
LayerCount: 3
Back
SplineSet
1044 0 m 5
 116 0 l 5
 108 124 l 5
 402 373 l 6
 599 542 823 753 823 998 c 7
 823 1165 771 1305 574 1305 c 7
 405 1305 307 1133 253 996 c 5
 153 1032 l 5
 201 1237 394 1470 647 1470 c 7
 912 1470 1044 1317 1044 1052 c 7
 1044 707 643 452 442 259 c 6
 345 169 l 5
 912 169 l 5
 1028 379 l 5
 1112 367 l 5
 1044 0 l 5
EndSplineSet
Fore
SplineSet
1044 0 m 1
 116 0 l 1
 108 124 l 1
 395 373 l 2
 601 551 823 753 823 998 c 3
 823 1165 771 1305 574 1305 c 3
 405 1305 307 1133 253 996 c 1
 153 1032 l 1
 201 1237 394 1470 647 1470 c 3
 912 1470 1044 1317 1044 1052 c 3
 1044 707 661 441 450 259 c 2
 339 163 l 1
 912 163 l 1
 1028 379 l 1
 1112 367 l 1
 1044 0 l 1
EndSplineSet
EndChar

StartChar: twosuperior
Encoding: 178 178 444
Width: 315
VWidth: 0
Flags: HW
LayerCount: 3
Fore
SplineSet
96 1454 m 1
 60 1458 44 1468 44 1498 c 0
 44 1540 113 1582 159 1582 c 0
 211 1582 253 1542 253 1486 c 0
 253 1418 219 1387 147 1323 c 2
 98 1281 l 1
 259 1281 l 1
 251 1229 l 1
 36 1229 l 1
 34 1267 l 1
 139 1371 l 2
 169 1399 187 1434 187 1470 c 0
 187 1510 171 1542 135 1542 c 0
 101 1542 96 1490 96 1454 c 1
EndSplineSet
EndChar

StartChar: u
Encoding: 117 117 445
Width: 1252
VWidth: 0
Flags: HW
LayerCount: 3
Fore
SplineSet
829 159 m 1
 815 159 l 1
 731 35 613 -28 466 -28 c 0
 309 -28 195 64 195 325 c 2
 195 885 l 1
 28 952 l 1
 44 1048 l 1
 371 1074 l 1
 400 1044 l 1
 400 386 l 2
 400 203 478 139 588 139 c 0
 698 139 763 179 815 233 c 1
 815 879 l 1
 620 930 l 1
 632 1040 l 1
 990 1074 l 1
 1016 1044 l 1
 1016 261 l 2
 1016 139 1068 126 1148 108 c 2
 1203 96 l 1
 1193 -6 l 1
 1117 -24 1080 -28 1008 -28 c 0
 886 -28 829 49 829 149 c 2
 829 159 l 1
1128 20 m 0
606 1064 m 0
EndSplineSet
EndChar

StartChar: underscore
Encoding: 95 95 461
Width: 1096
VWidth: 0
Flags: HW
LayerCount: 3
Fore
SplineSet
50 -32 m 1
 1058 -32 l 1
 1044 -161 l 1
 36 -161 l 1
 50 -32 l 1
EndSplineSet
EndChar

StartChar: uniF001
Encoding: 61441 61441 466
Width: 1441
VWidth: 0
Flags: HW
LayerCount: 3
Fore
SplineSet
452 1193 m 1
 450 1062 l 1
 763 1062 l 1
 747 954 l 1
 450 954 l 1
 450 147 l 1
 749 102 l 1
 739 0 l 1
 48 0 l 1
 62 88 l 1
 247 141 l 1
 247 954 l 1
 66 954 l 1
 80 1042 l 1
 249 1070 l 1
 289 1421 520 1586 693 1586 c 0
 822 1586 912 1544 912 1446 c 0
 912 1386 843 1325 803 1309 c 1
 743 1405 674 1458 606 1458 c 0
 516 1458 458 1402 452 1193 c 1
EndSplineSet
Refer: 292 105 N 1 0 0 1 745 0 2
EndChar

StartChar: uniF002
Encoding: 61442 61442 467
Width: 1421
VWidth: 0
Flags: HW
LayerCount: 3
Fore
SplineSet
446 1153 m 2
 450 1062 l 1
 763 1062 l 1
 747 954 l 1
 450 954 l 1
 450 147 l 1
 749 102 l 1
 739 0 l 1
 48 0 l 1
 62 88 l 1
 247 141 l 1
 247 954 l 1
 66 954 l 1
 80 1042 l 1
 249 1070 l 1
 253 1403 492 1584 606 1584 c 0
 712 1584 781 1558 781 1476 c 0
 781 1428 739 1381 703 1361 c 1
 673 1393 584 1442 530 1442 c 0
 468 1442 444 1364 444 1223 c 0
 444 1201 444 1177 446 1153 c 2
EndSplineSet
Refer: 311 108 N 1 0 0 1 745 0 2
EndChar

StartChar: v
Encoding: 118 118 471
Width: 1126
VWidth: 0
Flags: HW
LayerCount: 3
Fore
SplineSet
486 -34 m 1
 147 920 l 1
 0 970 l 1
 12 1062 l 1
 556 1062 l 1
 546 972 l 1
 369 922 l 1
 598 235 l 1
 831 920 l 1
 636 970 l 1
 653 1062 l 1
 1118 1062 l 1
 1104 972 l 1
 972 922 l 1
 641 -12 l 1
 486 -34 l 1
EndSplineSet
EndChar

StartChar: vav-hb
Encoding: 1493 1493 472
Width: 518
VWidth: 0
Flags: HW
LayerCount: 3
Fore
SplineSet
349 741 m 1
 357 803 327 821 281 835 c 2
 48 904 l 1
 26 932 l 1
 46 1189 l 1
 129 1197 l 1
 171 1086 l 1
 307 1046 l 2
 371 1028 436 992 438 809 c 2
 442 325 l 2
 442 237 450 96 462 0 c 1
 345 -20 l 1
 301 10 l 1
 349 741 l 1
259 532 m 0
40 0 m 0
259 1064 m 0
40 1064 m 0
259 0 m 0
EndSplineSet
EndChar

StartChar: w
Encoding: 119 119 473
Width: 1511
VWidth: 0
Flags: HW
LayerCount: 3
Fore
SplineSet
859 1008 m 1
 1026 420 l 1
 1052 285 l 1
 1217 922 l 1
 1034 972 l 1
 1046 1064 l 1
 1512 1064 l 1
 1498 974 l 1
 1367 924 l 1
 1108 -12 l 1
 964 -34 l 1
 753 713 l 1
 562 -12 l 1
 418 -34 l 1
 141 922 l 1
 0 972 l 1
 12 1064 l 1
 518 1064 l 1
 506 974 l 1
 341 924 l 1
 478 438 l 1
 506 293 l 1
 691 986 l 1
 859 1008 l 1
EndSplineSet
EndChar

StartChar: x
Encoding: 120 120 478
Width: 1112
VWidth: 0
Flags: HW
LayerCount: 3
Fore
SplineSet
974 139 m 1
 1112 90 l 1
 1102 0 l 1
 560 0 l 1
 576 88 l 1
 731 139 l 1
 530 426 l 1
 311 139 l 1
 484 90 l 1
 472 0 l 1
 0 0 l 1
 12 88 l 1
 143 139 l 1
 440 530 l 1
 161 930 l 1
 18 980 l 1
 30 1072 l 1
 558 1072 l 1
 542 982 l 1
 402 932 l 1
 592 667 l 1
 795 930 l 1
 628 980 l 1
 645 1072 l 1
 1102 1072 l 1
 1086 982 l 1
 958 932 l 1
 679 568 l 1
 974 139 l 1
EndSplineSet
EndChar

StartChar: y
Encoding: 121 121 479
Width: 1148
VWidth: 0
Flags: HW
LayerCount: 3
Back
SplineSet
593.958 -12.582 m 17
 158.619 921.6 l 1
 12.0469 967.78 l 1
 26.1016 1062.15 l 1
 542.117 1062.15 l 1
 532.078 971.796 l 1
 373.459 925.615 l 1
 734.871 156.611 l 9
 593.958 -12.582 l 17
528.062 -60.2354 m 6
 923.607 919.592 l 1
 764.988 969.788 l 1
 781.051 1062.15 l 1
 1190.65 1062.15 l 1
 1180.61 971.796 l 1
 1066.17 921.6 l 1
 664.596 -64.251 l 6
 537.036 -377.412 433.736 -461.804 248.973 -461.804 c 7
 135.945 -461.804 68.2666 -387.544 68.2666 -317.239 c 7
 68.2666 -269.499 81.0977 -227.203 136.533 -178.698 c 5
 226.887 -234.918 278.951 -244.957 335.31 -244.957 c 7
 395.678 -244.957 462.605 -222.383 528.062 -60.2354 c 6
562.196 1064.16 m 0
EndSplineSet
Fore
SplineSet
478 -60 m 2
 873 920 l 1
 715 970 l 1
 731 1062 l 1
 1148 1062 l 1
 1138 972 l 1
 1016 922 l 1
 614 -64 l 2
 488 -377 390 -462 205 -462 c 3
 93 -462 18 -387 18 -317 c 3
 18 -269 30 -219 86 -171 c 1
 152 -217 205 -237 269 -237 c 3
 329 -237 412 -223 478 -60 c 2
526 -64 m 9
 643 185 l 17
 363 926 l 1
 518 972 l 1
 528 1062 l 1
 18 1062 l 1
 4 968 l 1
 155 922 l 1
 526 -64 l 9
588 1064 m 0
EndSplineSet
EndChar

StartChar: yen
Encoding: 165 165 483
Width: 1471
VWidth: 0
Flags: HW
LayerCount: 3
Fore
SplineSet
637 584 m 1
 264 584 l 1
 278 703 l 1
 603 703 l 1
 303 1369 l 1
 137 1420 l 1
 153 1512 l 1
 712 1512 l 1
 698 1420 l 1
 537 1373 l 1
 801 773 l 1
 1066 1369 l 1
 875 1420 l 1
 887 1512 l 1
 1369 1512 l 1
 1357 1420 l 1
 1207 1373 l 1
 898 703 l 1
 1263 703 l 1
 1249 584 l 1
 865 584 l 1
 865 410 l 1
 1259 410 l 1
 1245 292 l 1
 865 292 l 1
 865 136 l 1
 1064 95 l 1
 1052 0 l 1
 443 0 l 1
 455 87 l 1
 637 144 l 1
 637 292 l 1
 260 292 l 1
 274 410 l 1
 637 410 l 1
 637 584 l 1
EndSplineSet
EndChar

StartChar: yod-hb
Encoding: 1497 1497 485
Width: 610
VWidth: 0
Flags: HW
LayerCount: 3
Fore
SplineSet
285 496 m 1
 285 496 390 651 390 721 c 0
 390 767 367 801 321 815 c 1
 88 904 l 1
 66 932 l 1
 86 1189 l 1
 169 1197 l 1
 211 1086 l 1
 347 1026 l 1
 411 1008 478 895 478 789 c 0
 478 719 454 612 454 612 c 2
 446 550 432 500 422 454 c 1
 307 460 l 1
 285 496 l 1
305 532 m 0
40 0 m 0
305 1064 m 0
40 1064 m 0
305 0 m 0
EndSplineSet
EndChar

StartChar: z
Encoding: 122 122 487
Width: 1096
VWidth: 0
Flags: HW
LayerCount: 3
Fore
SplineSet
143 1062 m 5
 960 1062 l 5
 960 972 l 5
 349 120 l 5
 787 120 l 5
 902 335 l 5
 984 325 l 5
 934 0 l 5
 118 0 l 5
 112 106 l 5
 709 948 l 5
 299 948 l 5
 227 723 l 5
 133 739 l 5
 143 1062 l 5
548 1064 m 4
EndSplineSet
EndChar

StartChar: zayin-hb
Encoding: 1494 1494 489
Width: 528
VWidth: 0
Flags: HW
LayerCount: 3
Fore
SplineSet
269 863 m 1
 349 863 l 1
 271 779 291 632 299 562 c 2
 325 325 l 2
 337 229 363 76 381 -4 c 1
 255 -24 l 1
 213 6 l 1
 185 526 l 2
 181 582 175 777 269 845 c 1
 269 863 l 1
466 807 m 1
 299 849 l 1
 293 851 l 1
 100 904 l 1
 68 940 l 1
 92 1193 l 1
 173 1199 l 1
 213 1094 l 1
 452 1028 l 1
 484 990 l 1
 478 811 l 1
 466 807 l 1
265 532 m 0
40 0 m 0
265 1064 m 0
40 1064 m 0
265 0 m 0
EndSplineSet
EndChar

StartChar: zero
Encoding: 48 48 493
Width: 1222
VWidth: 0
Flags: HW
HStem: -32 122<482 767> 1339 120<480 747>
VStem: 104 211<381 1020> 912 207<394 1044>
LayerCount: 3
Back
SplineSet
413.615 674.636 m 5
 349.364 624.439 281.098 497.945 281.098 369.443 c 4
 281.098 224.879 377.475 80.3135 505.977 80.3135 c 4
 642.51 80.3135 734.871 160.628 734.871 323.263 c 4
 734.871 453.772 590.306 564.204 413.615 674.636 c 5
80.3135 341.333 m 4
 80.3135 477.867 168.659 606.369 343.341 716.8 c 5
 343.341 726.839 l 5
 252.988 781.051 134.525 915.576 134.525 1078.21 c 4
 134.525 1283.01 307.2 1459.7 520.031 1459.7 c 4
 728.847 1459.7 863.373 1329.19 863.373 1146.48 c 4
 863.373 1003.92 803.138 889.475 662.588 785.066 c 5
 660.58 773.02 l 5
 839.278 660.58 927.624 524.047 927.624 375.467 c 4
 927.624 152.596 730.854 -32.126 451.765 -32.126 c 4
 228.895 -32.126 80.3135 108.424 80.3135 341.333 c 4
580.267 823.216 m 5
 630.463 877.428 684.675 947.702 684.675 1102.31 c 4
 684.675 1232.82 616.408 1367.34 487.906 1367.34 c 4
 391.529 1367.34 317.239 1287.03 317.239 1188.64 c 4
 317.239 1056.13 409.6 921.6 580.267 823.216 c 5
EndSplineSet
Fore
SplineSet
318 709 m 3
 318 265 433 90 622 90 c 3
 831 90 909 265 909 713 c 3
 909 1109 815 1339 618 1339 c 3
 397 1339 318 1109 318 709 c 3
1118 713 m 3
 1118 219 861 -32 620 -32 c 3
 347 -32 104 209 104 713 c 3
 104 1165 347 1460 616 1460 c 3
 909 1460 1118 1177 1118 713 c 3
EndSplineSet
EndChar

StartChar: zero.osf
Encoding: 65537 -1 494
Width: 1222
VWidth: 0
Flags: HW
HStem: -32 135<478 767> 1046 131<462 751>
VStem: 80 211<333 815> 930 213<325 819>
LayerCount: 3
Fore
SplineSet
291 568 m 0
 291 333 409 102 618 102 c 0
 837 102 930 307 930 572 c 0
 930 813 815 1046 614 1046 c 0
 393 1046 291 835 291 568 c 0
1142 568 m 0
 1142 247 931 -32 616 -32 c 0
 275 -32 80 209 80 572 c 0
 80 893 299 1177 612 1177 c 0
 955 1177 1142 909 1142 568 c 0
EndSplineSet
EndChar

StartChar: one.osf
Encoding: 65538 -1 495
Width: 769
VWidth: 0
Flags: HW
HStem: 0 90<70 129 659 717> 958 94<94 153>
VStem: 295 203<147 956>
LayerCount: 3
Fore
SplineSet
498 1144 m 1
 498 139 l 1
 729 98 l 1
 717 0 l 1
 60 0 l 1
 70 90 l 1
 295 147 l 1
 295 956 l 1
 84 958 l 1
 94 1052 l 1
 464 1144 l 1
 498 1144 l 1
EndSplineSet
EndChar

StartChar: two.osf
Encoding: 65539 -1 496
Width: 995
VWidth: 0
Flags: HW
HStem: 0 169<313 765> 1016 159<351 570>
VStem: 98 90<821 867> 632 219<663 952>
DStem2: 386 365 313 169 0.7888 0.61465<-177.96 262.503>
LayerCount: 3
Fore
SplineSet
891 0 m 1
 84 0 l 1
 76 124 l 1
 386 365 l 2
 591 526 632 683 632 801 c 0
 632 934 566 1016 450 1016 c 0
 313 1016 221 859 189 791 c 1
 98 827 l 1
 118 943 281 1175 534 1175 c 0
 713 1175 851 1046 851 855 c 0
 851 618 661 424 426 251 c 2
 313 169 l 1
 765 169 l 1
 859 337 l 1
 946 325 l 1
 891 0 l 1
EndSplineSet
EndChar

StartChar: three.osf
Encoding: 65540 -1 497
Width: 907
VWidth: 0
Flags: HW
HStem: -361 106<229 498> 349 80<281 341> 1012 163<305 514>
VStem: 84 94<855 912> 562 209<695 960> 610 217<-64 173>
LayerCount: 3
Fore
SplineSet
155 -66 m 1xf4
 163 -118 213 -255 329 -255 c 0
 554 -255 610 -105 610 36 c 0xf4
 610 177 450 349 301 349 c 2
 281 349 l 1
 269 430 l 1
 317 446 562 584 562 805 c 0
 562 911 520 1012 410 1012 c 0
 279 1012 225 939 179 829 c 1
 84 861 l 1
 108 990 263 1175 480 1175 c 0
 665 1175 771 1046 771 869 c 0xf8
 771 678 622 542 526 482 c 1
 526 468 l 1
 721 414 827 265 827 108 c 0
 827 -99 626 -361 305 -361 c 0
 94 -361 0 -273 0 -193 c 0
 0 -133 55 -76 155 -66 c 1xf4
EndSplineSet
EndChar

StartChar: four.osf
Encoding: 65541 -1 498
Width: 1158
VWidth: 0
Flags: HW
HStem: 108 149<267 677 881 1169>
VStem: 679 203<-325 104 257 823>
LayerCount: 3
Fore
SplineSet
679 -369 m 1
 679 108 l 1
 88 108 l 1
 60 199 l 1
 813 1199 l 1
 891 1177 l 1
 883 1032 879 747 879 526 c 2
 879 257 l 1
 1189 257 l 1
 1169 104 l 1
 881 104 l 1
 881 -325 l 1
 679 -369 l 1
677 257 m 1
 677 823 l 1
 267 257 l 1
 677 257 l 1
EndSplineSet
EndChar

StartChar: five.osf
Encoding: 65542 -1 499
Width: 955
VWidth: 0
Flags: HW
HStem: -361 110<213 474>
VStem: 612 223<-32 269>
DStem2: 141 488 287 663 0.169052 0.985607<196.541 467.332> 247 1108 341 928 0.996365 0.085191<78.631 495.138>
LayerCount: 3
Fore
SplineSet
787 1155 m 5
 757 956 l 5
 341 928 l 5
 287 663 l 5
 636 603 835 438 835 157 c 4
 835 -92 596 -361 275 -361 c 4
 44 -361 -40 -279 -40 -203 c 4
 -40 -143 10 -88 82 -74 c 5
 118 -124 206 -251 339 -251 c 4
 496 -251 612 -97 612 78 c 4
 612 319 472 450 141 488 c 5
 247 1108 l 5
 787 1155 l 5
EndSplineSet
EndChar

StartChar: six.osf
Encoding: 65543 -1 500
Width: 999
VWidth: 0
Flags: HW
HStem: -26 100<426 634> 727 124<426 641> 1395 70<775 795>
VStem: 80 227<247 703> 739 221<233 618>
LayerCount: 3
Fore
SplineSet
319 731 m 1
 331 731 l 1
 385 793 473 851 604 851 c 0
 841 851 960 651 960 430 c 0
 960 181 755 -26 512 -26 c 0
 201 -26 80 227 80 512 c 0
 80 920 404 1342 787 1466 c 1
 831 1395 l 1
 514 1250 367 972 319 731 c 1
522 74 m 0
 651 74 739 211 739 398 c 0
 739 563 689 727 516 727 c 0
 426 727 345 674 315 630 c 1
 311 590 307 536 307 494 c 0
 307 287 379 74 522 74 c 0
EndSplineSet
EndChar

StartChar: seven.osf
Encoding: 65544 -1 501
Width: 901
VWidth: 0
Flags: HW
HStem: 936 185<181 691>
VStem: 90 199<-337 -90>
LayerCount: 3
Fore
SplineSet
135 -62 m 0
 282 269 498 597 691 936 c 1
 181 936 l 1
 124 785 l 1
 40 801 l 1
 70 1120 l 1
 845 1120 l 1
 861 1004 l 1
 634 594 485 373 371 38 c 0
 333 -74 289 -257 289 -359 c 1
 275 -361 245 -369 233 -369 c 0
 157 -369 90 -319 90 -237 c 0
 90 -195 103 -134 135 -62 c 0
EndSplineSet
EndChar

StartChar: eight.osf
Encoding: 65545 -1 502
Width: 1007
VWidth: 0
Flags: HW
HStem: -32 112<392 647> 1367 92<377 596>
VStem: 80 201<203 502> 135 183<1032 1253> 685 179<960 1273> 735 193<201 446>
LayerCount: 3
Fore
SplineSet
414 675 m 1xe4
 350 625 281 498 281 369 c 0
 281 224 377 80 506 80 c 0
 643 80 735 160 735 323 c 0
 735 454 591 565 414 675 c 1xe4
80 341 m 0
 80 478 168 607 343 717 c 1
 343 727 l 1
 253 781 135 915 135 1078 c 0
 135 1283 307 1460 520 1460 c 0
 729 1460 863 1329 863 1146 c 0xd8
 863 1003 804 889 663 785 c 1
 661 773 l 1
 840 661 928 524 928 375 c 0
 928 152 731 -32 452 -32 c 0
 229 -32 80 108 80 341 c 0
580 823 m 1
 630 877 685 947 685 1102 c 0
 685 1233 617 1367 488 1367 c 0
 392 1367 317 1287 317 1189 c 0
 317 1056 409 921 580 823 c 1
EndSplineSet
EndChar

StartChar: nine.osf
Encoding: 65546 -1 503
Width: 993
VWidth: 0
Flags: HW
HStem: -313 90<195 255> 279 131<347 564> 1054 98<353 582>
VStem: 40 213<518 885> 697 217<500 891>
LayerCount: 3
Fore
SplineSet
681 410 m 1
 665 410 l 1
 605 328 498 279 392 279 c 0
 155 279 40 476 40 697 c 0
 40 946 251 1153 484 1153 c 0
 803 1153 914 899 914 614 c 0
 914 206 601 -184 199 -313 c 1
 171 -223 l 1
 526 -72 633 169 681 410 c 1
474 1054 m 0
 327 1054 253 916 253 729 c 0
 253 564 307 410 480 410 c 0
 564 410 649 454 687 516 c 1
 697 572 697 617 697 667 c 0
 697 866 615 1054 474 1054 c 0
EndSplineSet
EndChar

StartChar: uni1E9E
Encoding: 7838 7838 504
Width: 1566
VWidth: 4112
Flags: HW
LayerCount: 3
Back
SplineSet
1240.85 1313.13 m 5
 1205.71 1340.24 1142.46 1375.37 1058.13 1375.37 c 4
 969.788 1375.37 857.349 1291.04 857.349 1166.56 c 4
 857.349 807.153 1524.96 839.278 1524.96 389.521 c 4
 1524.96 110.432 1302.09 -30.1172 1025 -30.1172 c 4
 850.321 -30.1172 682.667 36.1416 615.404 148.58 c 5
 631.467 473.851 l 5
 755.953 455.78 l 5
 802.134 226.887 l 5
 846.306 156.611 938.667 94.3682 1053.11 94.3682 c 4
 1181.62 94.3682 1302.64 136.535 1302.09 309.208 c 4
 1301.08 622.432 645.521 598.337 645.521 1044.08 c 4
 645.521 1245.73 771.843 1383.71 944.69 1424.56 c 5
 945.694 1430.59 l 5
 922.274 1432.29 864.069 1433.6 839.278 1433.6 c 4
 598.303 1433.6 481.883 1268.96 481.883 955.733 c 6
 483.891 0 l 5
 36.1416 0 l 5
 46.1807 90.3525 l 5
 248.973 146.572 l 5
 248.973 927.624 l 6
 248.973 1361.32 489.914 1543.6 855.341 1543.6 c 4
 1084.24 1543.6 1302.09 1494.84 1418.54 1420.55 c 5
 1392.44 1078.21 l 5
 1271.97 1091.26 l 5
 1240.85 1313.13 l 5
EndSplineSet
Fore
SplineSet
1068 1373 m 3
 964 1373 857 1270 857 1146 c 0
 857 787 1526 840 1526 390 c 0
 1526 111 1301 -30 1024 -30 c 0
 849 -30 682 37 614 149 c 1
 630 464 l 1
 747 446 l 1
 791 227 l 1
 835 157 938 94 1052 94 c 0
 1181 94 1301 136 1301 309 c 0
 1301 622 647 578 647 1024 c 0
 647 1225 771 1386 944 1426 c 1
 946 1430 l 1
 922 1432 863 1434 839 1434 c 0
 598 1434 482 1269 482 956 c 2
 484 0 l 1
 36 0 l 1
 46 90 l 1
 249 147 l 1
 249 928 l 2
 249 1362 490 1544 855 1544 c 0
 1084 1544 1448 1492 1448 1275 c 3
 1448 1181 1395 1140 1299 1108 c 1
 1255 1237 1209 1373 1068 1373 c 3
EndSplineSet
Layer: 2
SplineSet
42.165 1511.91 m 5
 1250.89 1511.91 l 5
 1200.69 1122.38 l 5
 1094.27 1138.45 l 5
 1052.11 1401.47 l 5
 485.898 1401.47 l 5
 485.898 815.185 l 5
 835.263 815.185 l 5
 887.467 961.757 l 5
 995.891 977.819 l 5
 963.765 501.961 l 5
 857.349 483.891 l 5
 819.2 702.745 l 5
 485.898 702.745 l 5
 483.891 148.58 l 5
 773.02 102.4 l 5
 756.957 0 l 5
 38.1494 0 l 5
 48.1885 90.3525 l 5
 250.98 146.572 l 5
 250.98 1369.35 l 5
 30.1172 1419.54 l 5
 42.165 1511.91 l 5
EndSplineSet
EndChar

StartChar: uni1E9E.alt
Encoding: 65547 -1 505
Width: 1566
VWidth: 4112
Flags: HW
LayerCount: 3
Back
SplineSet
1050.1 921.6 m 0
 1126.4 881.443 1126.4 881.443 1221.77 828.235 c 128
 1285.35 792.765 1337.9 757.961 1379.39 723.827 c 128
 1420.88 689.694 1454.68 647.529 1480.78 597.333 c 128
 1506.89 547.138 1519.94 491.251 1519.94 429.679 c 0
 1519.94 294.482 1470.41 184.051 1371.36 98.3848 c 128
 1272.3 12.7178 1150.49 -30.1172 1005.93 -30.1172 c 0
 933.647 -30.1172 859.023 -13.0508 782.055 21.082 c 128
 705.086 55.2158 649.87 97.7139 616.408 148.58 c 1
 632.471 473.851 l 1
 756.957 455.78 l 1
 803.138 226.887 l 1
 852.663 138.541 929.632 94.3682 1034.04 94.3682 c 0
 1107.66 94.3682 1169.9 116.122 1220.77 159.623 c 128
 1271.64 203.125 1297.07 266.372 1297.07 349.364 c 0
 1297.07 397.553 1280 442.396 1245.87 483.891 c 128
 1211.73 525.385 1168.56 559.855 1116.36 587.294 c 128
 1064.16 614.733 1008.94 647.529 950.714 685.679 c 128
 863.373 742.902 863.373 742.902 785.066 795.105 c 0
 764.988 859.357 l 1
 1130.42 1397.46 l 1
 885.459 1429.58 l 1
 754.278 1429.58 654.224 1384.74 585.286 1295.06 c 128
 516.349 1205.38 481.883 1077.54 481.883 911.561 c 2
 481.883 0 l 1
 60.2354 0 l 1
 44.1729 92.3604 l 1
 248.973 142.557 l 1
 248.973 941.679 l 2
 248.973 1042.07 261.02 1121.05 285.113 1178.6 c 0
 310.545 1245.54 343.341 1300.41 383.498 1343.25 c 128
 423.655 1386.08 470.839 1423.89 525.051 1456.69 c 128
 579.263 1489.49 630.13 1511.91 677.647 1523.95 c 128
 725.165 1536 775.027 1542.02 827.231 1542.02 c 1
 1405.49 1511.91 l 1
 1405.49 1419.54 l 1
 1050.1 921.6 l 0
EndSplineSet
Fore
SplineSet
1036 928 m 17
 1144 852 1526 735 1526 410 c 0
 1526 131 1301 -30 1024 -30 c 0
 849 -30 682 47 614 159 c 1
 630 484 l 1
 755 466 l 1
 803 237 l 1
 847 167 938 94 1052 94 c 0
 1181 94 1301 156 1301 329 c 0
 1301 534 958 673 757 789 c 9
 729 849 l 1
 1124 1389 l 1
 1124 1395 l 1
 1072 1417 863 1434 839 1434 c 0
 598 1434 482 1301 482 865 c 2
 484 0 l 1
 36 0 l 1
 46 90 l 1
 249 147 l 1
 249 837 l 2
 249 1377 490 1544 855 1544 c 0
 1056 1544 1333 1522 1405 1498 c 1
 1407 1410 l 1
 1036 928 l 17
EndSplineSet
Layer: 2
SplineSet
1240.85 1313.13 m 5
 1205.71 1340.24 1142.46 1375.37 1058.13 1375.37 c 4
 969.788 1375.37 857.349 1291.04 857.349 1166.56 c 4
 857.349 807.153 1524.96 839.278 1524.96 389.521 c 4
 1524.96 110.432 1302.09 -30.1172 1025 -30.1172 c 4
 850.321 -30.1172 682.667 36.1416 615.404 148.58 c 5
 631.467 473.851 l 5
 755.953 455.78 l 5
 802.134 226.887 l 5
 846.306 156.611 938.667 94.3682 1053.11 94.3682 c 4
 1181.62 94.3682 1302.64 136.535 1302.09 309.208 c 4
 1301.08 622.432 645.521 598.337 645.521 1044.08 c 4
 645.521 1245.73 771.843 1383.71 944.69 1424.56 c 5
 945.694 1430.59 l 5
 922.274 1432.29 864.069 1433.6 839.278 1433.6 c 4
 598.303 1433.6 481.883 1268.96 481.883 955.733 c 6
 483.891 0 l 5
 36.1416 0 l 5
 46.1807 90.3525 l 5
 248.973 146.572 l 5
 248.973 927.624 l 6
 248.973 1361.32 489.914 1543.6 855.341 1543.6 c 4
 1084.24 1543.6 1302.09 1494.84 1418.54 1420.55 c 5
 1392.44 1078.21 l 5
 1271.97 1091.26 l 5
 1240.85 1313.13 l 5
EndSplineSet
EndChar

StartChar: uni1E9E.alt2
Encoding: 65548 -1 506
Width: 1566
VWidth: 4112
Flags: HW
LayerCount: 3
Fore
SplineSet
1241 1313 m 1
 1205 1341 1142 1375 1058 1375 c 0
 970 1375 857 1291 857 1167 c 0
 857 808 1526 840 1526 390 c 0
 1526 111 1301 -30 1024 -30 c 0
 849 -30 682 37 614 149 c 1
 630 474 l 1
 755 456 l 1
 803 227 l 1
 847 157 938 94 1052 94 c 0
 1181 94 1301 136 1301 309 c 0
 1301 622 647 598 647 1044 c 0
 647 1245 771 1386 944 1426 c 1
 946 1430 l 1
 922 1432 863 1434 839 1434 c 0
 598 1434 482 1269 482 956 c 2
 484 0 l 1
 36 0 l 1
 46 90 l 1
 249 147 l 1
 249 928 l 2
 249 1362 490 1544 855 1544 c 0
 1084 1544 1302 1496 1418 1422 c 1
 1393 1078 l 1
 1273 1092 l 1
 1241 1313 l 1
EndSplineSet
EndChar

StartChar: commaaccent
Encoding: 806 806 507
Width: 1199
Flags: HW
HStem: -484 48<-8.38933 44.48> -236 128<53.4244 162>
VStem: 134 108<-357.585 -185.773>
LayerCount: 3
Back
SplineSet
161 -92 m 1
 207 -132 269 -193 269 -275 c 0
 269 -371 167 -432 26 -474 c 1
 2 -402 l 1
 72 -378 107 -337 107 -301 c 0
 107 -259 62 -209 18 -167 c 1
 137 4 l 1
 227 4 l 1
 161 -92 l 1
275 0 m 0
EndSplineSet
Fore
SplineSet
128 -103 m 19
 176 -103 251 -139 251 -247 c 0
 251 -313 206 -431 26 -474 c 1
 4 -409 l 1
 90 -388 117 -344 117 -300 c 0
 117 -260 47 -207 20 -204 c 1
 31 -152 70 -103 128 -103 c 19
EndSplineSet
EndChar
